<?xml version="1.0" standalone="no"?>
<!DOCTYPE svg PUBLIC "-//W3C//DTD SVG 20010904//EN"
 "http://www.w3.org/TR/2001/REC-SVG-20010904/DTD/svg10.dtd">
<svg version="1.0" xmlns="http://www.w3.org/2000/svg"
 width="500.000000pt" height="503.000000pt" viewBox="0 0 500.000000 503.000000"
 preserveAspectRatio="xMidYMid meet">

<g transform="translate(0.000000,503.000000) scale(0.100000,-0.100000)"
fill="#000000" stroke="none">
<path d="M2127 4890 c-33 -26 -36 -66 -6 -75 15 -5 29 1 50 21 54 52 14 100
-44 54z m48 0 c-3 -5 -13 -10 -21 -10 -8 0 -12 5 -9 10 3 6 13 10 21 10 8 0
12 -4 9 -10z"/>
<path d="M2040 4815 c-7 -9 -10 -18 -6 -22 3 -3 6 -1 6 6 0 6 10 16 23 21 15
6 17 9 6 9 -9 1 -22 -6 -29 -14z"/>
<path d="M2205 4779 c-28 -34 -29 -56 -3 -72 22 -14 61 4 83 37 41 63 -30 94
-80 35z m65 12 c0 -12 -28 -22 -34 -12 -3 5 -3 11 1 15 9 9 33 7 33 -3z"/>
<path d="M2064 4712 c3 -5 0 -13 -6 -15 -9 -4 -10 -6 -1 -6 17 -1 25 16 12 25
-7 4 -9 3 -5 -4z"/>
<path d="M2304 4668 l-19 -23 23 19 c21 18 27 26 19 26 -2 0 -12 -10 -23 -22z"/>
<path d="M2250 4638 c-14 -5 -43 -7 -66 -3 -36 5 -42 3 -54 -19 -8 -15 -11
-41 -7 -66 6 -46 -18 -141 -52 -209 -12 -23 -20 -45 -17 -48 7 -7 40 63 60
127 10 30 19 61 21 67 3 7 10 10 17 8 11 -4 14 -44 14 -173 0 -158 1 -170 27
-233 15 -36 27 -80 27 -98 0 -36 34 -145 56 -175 21 -30 17 -16 -11 47 -14 31
-29 79 -32 108 l-6 52 24 -16 c13 -9 31 -17 40 -17 26 0 49 34 49 73 0 20 3
37 6 37 3 0 33 -13 67 -29 34 -16 82 -32 107 -35 l45 -5 -50 13 c-27 8 -79 27
-114 44 -71 34 -65 26 -142 222 -17 41 -28 64 -25 51 3 -16 -1 -30 -12 -39
-16 -13 -16 -13 1 -8 14 4 22 -4 37 -39 11 -25 17 -52 14 -60 -4 -8 1 -17 10
-21 9 -3 13 -10 11 -15 -3 -5 1 -22 10 -40 9 -17 14 -33 11 -36 -3 -3 -1 -13
4 -23 14 -27 1 -60 -25 -60 -29 0 -65 38 -47 49 8 5 11 17 7 33 -10 40 -13 61
-14 92 -1 23 -4 27 -13 18 -7 -7 -15 -12 -19 -12 -9 0 -22 195 -14 220 8 27
23 26 28 -2 2 -13 3 -7 1 14 -4 33 -1 38 35 56 l39 21 16 -44 c20 -50 81 -135
98 -135 7 0 -2 15 -18 33 -17 17 -36 40 -43 49 -22 29 -48 112 -45 147 1 18
-5 46 -14 61 -15 23 -21 26 -42 18z m30 -28 c0 -19 -5 -25 -20 -25 -9 0 -14
-8 -12 -18 4 -25 -11 -21 -42 12 l-28 30 33 4 c63 7 69 7 69 -3z m-75 -58 c-2
-2 -11 3 -20 12 -22 22 -27 20 -20 -6 5 -19 4 -20 -5 -6 -5 9 -7 24 -4 33 6
14 9 13 30 -6 13 -12 22 -24 19 -27z m85 8 c0 -5 -5 -10 -11 -10 -5 0 -7 5 -4
10 3 6 8 10 11 10 2 0 4 -4 4 -10z m-60 -384 c0 -3 -4 -8 -10 -11 -5 -3 -10
-1 -10 4 0 6 5 11 10 11 6 0 10 -2 10 -4z m9 -91 c0 -5 -4 -3 -9 5 -5 8 -9 22
-9 30 0 16 17 -16 18 -35z"/>
<path d="M2040 4249 c0 -5 5 -7 10 -4 6 3 10 8 10 11 0 2 -4 4 -10 4 -5 0 -10
-5 -10 -11z"/>
<path d="M1227 4163 c-14 -14 -6 -24 15 -18 20 7 21 5 15 -41 -4 -44 -4 -45 5
-17 17 52 -7 104 -35 76z"/>
<path d="M1367 4140 c3 -11 9 -20 14 -20 5 0 9 9 9 20 0 11 -6 20 -14 20 -9 0
-12 -7 -9 -20z"/>
<path d="M1527 4039 c-9 -6 -17 -18 -17 -28 0 -10 -12 -28 -26 -42 -38 -35
-127 -149 -122 -155 3 -2 24 19 46 48 56 73 108 122 121 114 14 -9 51 11 51
28 0 24 -33 46 -53 35z"/>
<path d="M1237 4033 c-4 -3 -7 -17 -7 -30 0 -37 -36 -66 -75 -60 -31 5 -34 2
-59 -43 -53 -97 -23 -190 61 -190 36 0 39 -2 41 -30 2 -25 -1 -30 -19 -30 -21
0 -22 1 -4 20 10 11 13 20 7 20 -6 0 -18 -10 -27 -22 -12 -18 -19 -21 -32 -12
-10 6 -21 22 -24 35 -4 13 -7 20 -8 15 -1 -5 -7 -3 -15 3 -12 10 -17 8 -26 -8
-9 -19 -6 -23 37 -43 61 -27 58 -25 43 -43 -10 -12 -10 -19 2 -37 9 -15 12
-32 7 -48 -13 -44 -10 -115 6 -136 12 -15 13 -39 8 -120 -4 -71 -2 -103 6
-108 8 -5 11 20 11 89 0 89 2 96 18 89 31 -13 89 -16 111 -5 20 11 21 9 21
-33 0 -53 19 -146 29 -146 4 0 2 28 -5 63 -21 97 -18 123 19 169 30 37 32 45
32 117 0 62 -4 82 -22 106 -19 27 -20 36 -11 76 10 42 16 49 77 86 93 56 120
66 137 52 7 -6 23 -8 34 -4 18 6 20 12 15 33 -4 15 -8 29 -10 31 -9 8 -55 -10
-55 -22 0 -7 -28 -27 -62 -44 -35 -18 -77 -41 -94 -53 l-32 -20 -14 43 c-11
35 -12 50 -1 87 13 44 9 105 -8 116 -5 3 -9 -3 -9 -14 0 -31 -38 -57 -77 -53
-24 2 -32 35 -18 74 12 34 8 47 -8 30z m-57 -413 c0 -5 -4 -10 -9 -10 -6 0
-13 5 -16 10 -3 6 1 10 9 10 9 0 16 -4 16 -10z"/>
<path d="M1176 4005 c-21 -21 -21 -47 0 -43 24 4 41 35 28 48 -8 8 -16 7 -28
-5z"/>
<path d="M1280 3999 c-21 -39 12 -68 39 -35 9 11 9 15 -1 18 -10 4 -10 8 1 21
12 15 11 17 -7 17 -12 0 -26 -9 -32 -21z"/>
<path d="M3338 3993 c7 -3 16 -2 19 1 4 3 -2 6 -13 5 -11 0 -14 -3 -6 -6z"/>
<path d="M3143 3983 c-7 -2 -13 -9 -13 -14 0 -6 4 -7 10 -4 5 3 17 2 25 -2 13
-8 10 -14 -15 -38 l-30 -29 0 30 0 29 -25 -30 c-21 -26 -36 -60 -19 -42 3 3
16 -6 28 -20 18 -21 27 -24 54 -18 87 19 113 146 29 144 -18 0 -38 -3 -44 -6z
m47 -78 c-7 -8 -17 -15 -23 -15 -5 0 -2 9 8 20 21 23 35 19 15 -5z m15 -25
c-10 -11 -23 -20 -28 -20 -6 0 0 11 13 25 27 29 42 25 15 -5z"/>
<path d="M3275 3955 c-14 -13 -25 -32 -26 -42 0 -10 -2 -28 -5 -41 -2 -15 4
-31 19 -46 13 -13 21 -28 19 -34 -7 -23 84 36 106 68 26 39 28 67 6 98 -22 32
-86 31 -119 -3z m33 -55 c-19 -37 -21 -39 -34 -23 -14 19 -18 46 -7 56 3 4 19
7 33 7 l27 0 -19 -40z m62 7 c0 -19 -27 -53 -36 -45 -9 10 12 58 26 58 5 0 10
-6 10 -13z m10 -46 c-6 -12 -15 -21 -20 -21 -5 0 -1 13 8 30 19 32 30 24 12
-9z"/>
<path d="M3467 3935 c20 -20 37 -34 39 -32 6 5 -51 67 -63 67 -6 0 5 -16 24
-35z"/>
<path d="M3623 3916 c36 -34 31 -60 -24 -133 -30 -41 -39 -61 -39 -92 0 -35
-4 -43 -30 -56 -16 -9 -30 -21 -30 -28 0 -7 -22 -29 -48 -50 -27 -20 -57 -47
-68 -59 -16 -19 -13 -18 16 5 112 87 200 151 233 170 27 15 36 26 32 39 -8 24
12 58 35 58 10 0 22 5 25 10 11 17 45 12 38 -6 -3 -8 -12 -13 -19 -10 -8 3
-11 0 -8 -8 3 -7 -2 -19 -11 -26 -13 -11 -14 -10 -9 4 3 9 2 16 -4 16 -22 0
-18 -26 7 -53 21 -23 23 -29 11 -37 -8 -5 -24 -7 -35 -4 -24 6 -242 -135 -290
-187 -16 -18 -22 -27 -12 -20 14 11 20 11 35 0 15 -13 16 -12 4 2 -11 14 -6
22 38 59 27 23 50 40 50 37 0 -2 -8 -28 -19 -58 -10 -30 -21 -76 -25 -104 -4
-27 -15 -59 -24 -70 -16 -18 -16 -19 0 -7 15 12 17 8 24 -35 3 -26 11 -56 16
-66 13 -25 -17 -56 -82 -87 -51 -24 -68 -46 -50 -64 8 -8 9 -6 5 5 -5 13 12
27 67 60 l73 44 39 -77 38 -78 -23 -20 c-13 -11 -41 -29 -61 -40 -37 -20 -48
-42 -28 -55 6 -3 7 1 4 9 -4 11 4 21 26 33 18 10 46 29 62 42 25 20 32 22 38
10 5 -8 16 -23 25 -34 16 -20 16 -20 10 3 -4 13 -2 22 4 22 17 0 13 -31 -6
-53 -17 -19 -17 -20 -1 -14 28 10 31 -11 9 -55 -27 -55 -21 -59 8 -7 l23 40
24 -22 c31 -29 30 -42 -3 -69 -16 -12 -21 -18 -13 -14 8 4 24 15 36 26 20 18
54 16 54 -4 0 -5 6 -8 13 -7 6 1 23 1 36 0 20 -1 22 -5 16 -28 -10 -43 -35
-75 -51 -69 -9 3 -12 1 -9 -4 15 -24 38 -7 61 46 14 31 23 58 21 61 -2 2 -19
5 -36 8 -30 3 -71 36 -71 57 0 4 -11 8 -24 8 -18 0 -26 6 -28 22 -2 12 -10 24
-18 26 -13 5 -13 3 0 -14 14 -18 14 -18 -3 -5 -10 8 -17 24 -15 35 3 28 -9 46
-31 46 -14 0 -17 6 -13 29 3 25 0 30 -19 33 -15 2 -23 9 -20 18 8 35 5 45 -17
48 -18 3 -21 8 -16 28 5 20 2 26 -15 31 -17 4 -19 9 -10 25 12 23 2 39 -11 18
-7 -12 -9 -11 -9 5 0 11 -3 32 -7 48 -4 18 -2 27 6 27 7 0 10 -8 7 -20 -3 -11
-1 -20 4 -20 16 0 9 39 -8 49 -17 9 -17 11 2 25 11 8 16 18 12 22 -4 5 -12 2
-17 -6 -7 -11 -10 -5 -10 22 0 30 3 36 16 31 13 -5 13 -8 2 -15 -10 -8 -10 -9
1 -6 21 6 26 28 7 28 -30 0 -7 85 25 93 10 3 19 13 19 23 0 16 -1 16 -16 -2
-14 -18 -15 -18 -8 5 12 43 116 115 169 117 44 2 76 11 95 29 16 15 17 19 4
43 -8 15 -14 32 -14 37 0 6 -7 21 -16 33 -15 22 -17 22 -40 8 -13 -9 -30 -16
-37 -16 -22 0 -49 -36 -45 -60 2 -16 -7 -27 -37 -45 l-40 -24 -3 40 c-2 32 4
48 37 92 21 28 42 62 45 74 9 27 -7 59 -37 74 -17 9 -16 6 6 -15z m154 -170
c-3 -8 -16 -20 -27 -26 -22 -12 -22 -11 1 19 23 31 36 35 26 7z m9 -34 c-3 -5
-16 -12 -28 -15 -22 -6 -22 -6 2 13 25 19 37 20 26 2z m14 -22 c0 -5 -9 -14
-19 -20 -25 -13 -38 5 -14 19 23 13 33 14 33 1z m-270 -75 c-7 -9 -15 -13 -19
-10 -3 3 1 10 9 15 21 14 24 12 10 -5z m5 -455 c3 -5 1 -10 -4 -10 -6 0 -11 5
-11 10 0 6 2 10 4 10 3 0 8 -4 11 -10z m38 -56 c3 -3 3 -13 0 -21 -5 -12 -7
-12 -14 -1 -15 23 -4 40 14 22z m37 -80 c0 -8 -4 -12 -10 -9 -5 3 -10 10 -10
16 0 5 5 9 10 9 6 0 10 -7 10 -16z m130 -164 c0 -5 -2 -10 -4 -10 -3 0 -8 5
-11 10 -3 6 -1 10 4 10 6 0 11 -4 11 -10z"/>
<path d="M2951 3861 c-1 -20 41 -81 55 -81 6 0 17 -7 24 -16 14 -16 75 -44 94
-43 6 0 -11 11 -39 23 -48 23 -117 85 -128 116 -4 12 -6 13 -6 1z"/>
<path d="M3386 3741 c-3 -5 -21 -12 -41 -15 -19 -4 -37 -11 -40 -15 -3 -5 16
-3 42 5 25 8 48 12 50 10 7 -7 -59 -76 -72 -76 -7 0 -15 -6 -18 -12 -2 -9 -30
-13 -94 -13 -79 1 -95 4 -137 29 -26 15 -51 37 -55 49 l-8 21 -13 -23 c-17
-33 -15 -87 5 -117 9 -15 13 -25 8 -22 -75 34 -104 54 -100 70 6 23 -30 54
-73 62 -25 4 -31 3 -20 -4 8 -5 25 -10 37 -10 24 0 48 -33 39 -56 -4 -9 21
-27 82 -57 122 -62 152 -80 152 -94 0 -7 -1 -13 -2 -13 -2 0 -57 27 -123 60
-87 43 -123 56 -132 48 -14 -12 -43 -4 -43 12 0 5 9 19 20 30 19 19 18 50 -2
50 -6 0 -8 -7 -4 -15 3 -8 2 -15 -3 -15 -5 0 -14 -13 -21 -30 -14 -34 -31 -38
-51 -13 -13 15 -11 16 14 9 19 -4 26 -3 22 4 -3 5 0 10 7 10 7 0 0 11 -17 24
-16 13 -27 28 -22 32 4 4 18 -3 32 -16 14 -13 25 -19 25 -14 0 13 -16 35 -26
37 -5 1 -9 11 -8 22 1 17 -1 17 -15 -5 -9 -13 -16 -33 -17 -44 0 -12 -4 -31
-8 -43 -10 -30 18 -43 97 -47 51 -2 79 -11 157 -50 52 -26 101 -53 108 -59 10
-8 16 -7 23 4 5 8 9 17 9 20 0 3 27 3 61 1 36 -3 65 0 71 6 8 8 -6 9 -46 5
-49 -5 -64 -2 -121 26 -71 35 -115 86 -115 133 0 37 12 41 43 12 14 -13 33
-24 42 -24 8 0 15 -4 15 -10 0 -13 -34 1 -64 27 -14 13 -26 19 -26 14 0 -12
46 -48 71 -56 11 -4 27 -1 35 6 12 10 13 9 8 -4 -5 -14 3 -16 58 -12 72 4 128
14 128 24 0 3 12 12 28 18 30 14 72 70 72 96 0 18 -15 23 -24 8z m-591 -121
c3 -5 -1 -10 -9 -10 -9 0 -16 5 -16 10 0 6 4 10 9 10 6 0 13 -4 16 -10z m438
-17 c-7 -2 -19 -2 -25 0 -7 3 -2 5 12 5 14 0 19 -2 13 -5z"/>
<path d="M3140 3716 c0 -2 7 -7 16 -10 8 -3 12 -2 9 4 -6 10 -25 14 -25 6z"/>
<path d="M3213 3703 c15 -2 37 -2 50 0 12 2 0 4 -28 4 -27 0 -38 -2 -22 -4z"/>
<path d="M3523 3469 c3 -9 0 -22 -6 -28 -8 -8 -8 -11 0 -11 17 0 25 32 12 44
-9 8 -10 7 -6 -5z"/>
<path d="M3104 3399 c-48 -93 -66 -164 -69 -269 l-4 -105 9 100 c8 98 32 189
72 268 10 20 16 37 13 37 -2 0 -12 -14 -21 -31z"/>
<path d="M1803 3348 c-29 -72 -78 -132 -143 -173 -51 -32 -145 -65 -185 -65
-19 0 -35 -5 -35 -10 0 -13 54 -4 129 22 119 40 202 117 241 221 18 47 26 57
44 57 32 0 71 -87 62 -139 -4 -20 -7 -44 -8 -53 -1 -9 -4 -15 -7 -13 -6 7 -31
-15 -31 -27 0 -5 5 -6 12 -2 7 4 8 3 4 -5 -4 -6 -11 -9 -15 -6 -5 2 -17 -5
-27 -18 -10 -12 -12 -16 -4 -9 8 6 19 12 25 12 5 0 1 -7 -9 -15 -10 -8 -23
-12 -27 -9 -5 3 -20 -2 -33 -11 -25 -17 -127 -47 -134 -41 -2 2 12 9 31 15 41
14 72 45 61 62 -4 7 -3 10 3 6 9 -6 23 12 23 28 0 2 -27 -13 -60 -32 -33 -20
-58 -38 -56 -40 2 -2 21 6 42 19 21 12 34 17 30 10 -24 -39 -166 -77 -255 -68
-48 5 -52 4 -26 -6 17 -6 77 -10 135 -10 94 0 117 4 215 37 128 43 194 52 262
36 49 -12 50 -13 49 -51 0 -21 -4 -36 -8 -34 -4 3 -5 11 -1 19 3 8 0 15 -7 15
-10 0 -10 3 -1 14 10 12 6 17 -26 25 -21 6 -51 11 -68 10 l-30 -1 35 -10 c73
-20 98 -74 65 -137 -28 -54 -84 -88 -190 -115 -13 -3 -9 -5 10 -4 17 0 44 -1
60 -2 29 -2 28 -3 -13 -15 -23 -8 -73 -17 -110 -21 -62 -6 -75 -3 -138 23 -38
17 -100 43 -139 59 -75 31 -155 80 -155 95 0 13 2 12 97 -17 63 -20 87 -24 96
-15 8 8 4 11 -16 11 -33 0 -132 36 -146 54 -13 16 -51 10 -48 -8 1 -6 -4 -10
-10 -8 -16 3 -17 -20 -2 -35 7 -7 3 -9 -15 -6 -22 5 -25 2 -20 -12 5 -12 -1
-23 -17 -36 -23 -18 -24 -18 -41 4 l-18 22 0 -34 c0 -30 -2 -33 -24 -27 -14 3
-28 1 -31 -4 -4 -6 -11 -7 -17 -4 -6 4 -18 -3 -28 -16 -55 -73 -130 90 -83
181 l19 35 -22 -4 c-12 -2 -21 -11 -20 -19 1 -9 -18 -22 -47 -33 -72 -28 -145
-89 -223 -187 -111 -138 -200 -291 -234 -398 -18 -59 -27 -62 -25 -8 1 28 14
75 30 112 28 61 28 63 9 75 -69 41 -143 24 -225 -52 -73 -68 -96 -109 -111
-207 -19 -123 4 -214 89 -341 34 -51 34 -53 19 -83 -31 -59 -12 -88 29 -47 14
15 28 26 32 26 3 0 3 -24 -1 -52 -3 -29 -6 -95 -6 -145 l0 -93 -27 -1 c-16 0
-44 -6 -63 -13 -33 -11 -37 -10 -59 13 l-23 26 16 -27 16 -28 -32 5 c-18 3
-27 3 -20 -1 17 -8 15 -24 -3 -24 -8 0 -15 -5 -15 -11 0 -6 7 -9 15 -5 18 6
19 2 4 -26 -10 -19 -9 -20 10 -15 17 4 22 -1 31 -33 5 -20 13 -58 16 -84 l7
-46 -45 45 c-58 58 -78 59 -23 2 50 -53 85 -121 85 -166 0 -41 -20 -111 -31
-111 -5 0 -16 17 -24 37 -17 40 -64 107 -71 100 -2 -2 7 -24 20 -48 14 -24 32
-73 41 -109 9 -36 20 -81 25 -100 11 -43 38 -246 41 -315 3 -45 1 -50 -18 -49
-12 0 -20 -6 -19 -15 1 -10 -20 -22 -58 -35 -36 -13 -67 -31 -79 -47 -17 -24
-18 -29 -3 -56 8 -17 26 -37 39 -46 14 -9 37 -37 51 -63 l26 -47 -24 -36 c-13
-20 -42 -56 -65 -79 -44 -47 -46 -53 -31 -82 22 -41 82 -44 619 -30 452 12
543 11 851 -4 521 -25 1177 -18 1465 15 56 6 274 12 495 13 322 2 415 5 505
20 150 23 215 41 238 65 20 20 20 20 1 68 -10 26 -19 51 -19 55 0 4 28 25 62
47 69 44 83 70 58 107 -13 21 -14 28 -3 41 10 13 8 19 -14 38 -15 13 -31 24
-37 26 -12 5 19 99 33 99 10 0 86 79 86 90 0 3 23 13 51 20 28 8 54 21 58 30
5 8 5 40 1 70 -8 58 -5 74 10 50 15 -24 23 11 10 44 -5 15 -10 28 -10 29 0 1
39 2 88 2 75 0 95 4 143 27 31 16 67 28 81 28 14 0 33 9 43 20 17 19 17 22 2
37 -15 15 -18 15 -41 -1 -14 -9 -26 -21 -26 -26 0 -5 -17 -18 -39 -29 -76 -39
-236 -47 -248 -12 -3 9 -15 26 -26 39 l-20 22 22 0 c18 0 22 4 18 19 -3 12 3
27 13 36 48 43 86 208 55 239 -9 9 -23 16 -30 16 -8 0 -19 8 -24 18 -6 10 -26
29 -45 43 -19 13 -37 31 -39 40 -7 26 -56 54 -70 40 -8 -8 -6 -11 10 -11 29 0
37 -13 49 -76 8 -41 -17 -89 -59 -114 -64 -39 -127 -16 -127 46 0 33 32 92 55
100 27 11 16 23 -14 14 -44 -12 -73 -30 -112 -67 -30 -28 -41 -33 -63 -27 -17
4 -31 17 -37 32 -19 50 23 222 55 222 41 0 136 74 136 107 0 21 -135 214 -229
328 -112 135 -288 313 -375 380 -36 28 -65 53 -65 58 -1 4 27 7 62 7 119 1
277 49 336 103 41 39 79 102 85 143 l6 39 -14 -43 c-17 -51 -39 -87 -75 -119
-37 -33 -100 -65 -113 -57 -6 4 -8 3 -4 -4 4 -7 -6 -9 -31 -7 -28 4 -31 3 -14
-3 23 -7 22 -9 -20 -21 -55 -17 -282 -31 -295 -18 -3 2 -13 38 -23 80 -14 59
-15 74 -4 70 7 -3 13 -8 13 -12 0 -11 155 -91 176 -91 11 1 2 7 -19 14 -51 19
-142 75 -178 110 -35 34 -35 48 1 -112 31 -138 31 -137 100 -163 33 -12 63
-27 67 -32 4 -6 0 -8 -11 -4 -10 4 -30 10 -44 13 l-27 5 33 -29 c45 -40 40
-50 -7 -13 -21 17 -42 31 -45 31 -4 0 3 -19 14 -42 l21 -43 -32 38 c-40 48
-57 48 -25 0 14 -20 23 -39 21 -42 -3 -2 -6 -2 -8 0 -1 2 -22 30 -45 61 -35
47 -41 62 -36 88 4 17 -1 81 -11 143 -18 113 -34 167 -35 116 0 -17 -8 -30
-22 -37 -22 -11 -22 -11 3 -6 25 5 27 3 33 -45 4 -28 10 -59 13 -68 5 -13 2
-15 -23 -9 -66 16 -242 111 -230 124 3 3 11 0 18 -5 8 -6 22 -7 33 -2 19 7 19
8 -3 8 -13 1 -33 6 -44 12 -15 8 -19 8 -14 0 15 -24 -8 -9 -56 37 -60 56 -92
108 -113 182 -13 45 -15 48 -11 16 9 -68 55 -147 128 -218 38 -38 75 -68 82
-68 8 0 19 -7 26 -15 10 -12 9 -15 -8 -15 -11 0 -22 6 -25 13 -2 6 -10 -14
-16 -46 -13 -61 -12 -148 2 -158 10 -7 -15 -60 -38 -79 -28 -23 -28 -2 0 37
l27 38 -31 -35 c-17 -19 -33 -43 -36 -52 -4 -10 -11 -18 -16 -18 -11 0 -7 9
23 53 29 40 4 33 -31 -10 -36 -44 -40 -39 -10 11 25 42 19 45 -25 11 -46 -35
-58 -31 -16 5 36 30 31 37 -14 20 -14 -5 -26 -6 -26 -1 0 5 15 14 33 21 98 36
93 31 117 130 11 51 20 93 18 95 -29 26 -315 141 -325 131 -2 -2 26 -14 64
-26 91 -30 243 -101 243 -113 0 -6 -5 -6 -12 0 -26 20 -206 91 -293 116 -208
59 -384 80 -618 75 -137 -3 -156 -1 -151 12 4 8 8 30 11 49 2 18 13 51 24 72
18 37 15 51 -7 29 -7 -7 -10 3 -8 30 2 32 -2 40 -15 40 -27 0 -30 9 -15 45 8
21 14 69 14 119 0 79 -2 85 -22 92 -44 15 -60 11 -69 -15 -12 -30 -80 -121
-91 -121 -4 0 -8 16 -8 36 0 41 -37 134 -54 135 -6 0 -19 2 -28 4 -13 2 -24
-14 -45 -67z m298 7 c35 -22 -28 -143 -92 -175 -38 -20 -42 -20 -59 -5 -22 20
-17 38 24 85 17 19 40 51 50 71 19 36 44 44 77 24z m-1059 -381 c-11 -19 5
-90 31 -141 23 -43 21 -65 -5 -98 l-22 -28 22 5 c30 8 29 -11 -4 -76 -47 -94
-124 -178 -203 -223 -88 -49 -202 -128 -192 -131 6 -2 11 -10 11 -18 0 -9 26
-27 61 -43 55 -25 59 -29 43 -42 -15 -12 -16 -12 -9 0 5 10 4 12 -4 7 -6 -4
-9 -12 -6 -17 4 -5 1 -17 -4 -26 -9 -16 -10 -15 -11 7 0 20 -2 22 -10 10 -5
-8 -10 -25 -10 -38 0 -20 -46 -102 -57 -102 -5 0 3 15 29 52 18 27 25 50 9 33
-22 -24 -64 -108 -51 -101 10 5 10 3 -1 -6 -9 -7 -14 -19 -11 -27 3 -9 0 -11
-8 -6 -10 6 -12 4 -7 -9 4 -9 3 -15 -2 -11 -6 3 -13 -1 -18 -8 -5 -8 -34 -17
-70 -20 l-63 -7 0 37 c0 20 6 44 13 52 8 9 22 39 32 66 10 28 26 59 36 70 23
26 39 69 39 105 0 16 6 30 13 33 9 3 12 41 13 144 l1 140 38 71 c22 40 43 72
47 72 4 0 8 5 8 11 0 6 21 41 47 78 90 127 179 206 245 220 36 8 47 -5 30 -35z
m1088 38 c0 -5 -10 -17 -22 -28 -23 -19 -23 -19 -5 2 9 11 14 24 10 27 -3 4
-1 7 5 7 7 0 12 -4 12 -8z m-532 -148 c141 -55 181 -75 211 -108 14 -14 22
-26 18 -26 -3 0 0 -19 8 -41 19 -52 18 -59 -1 -34 -18 22 -18 23 1 -44 5 -16
2 -18 -15 -14 -15 4 -18 9 -10 18 7 8 7 16 2 19 -12 7 -24 -36 -13 -44 15 -10
32 -50 21 -50 -5 0 -10 4 -10 10 0 6 -9 6 -25 0 -14 -5 -40 -7 -57 -5 -27 5
-30 4 -13 -5 15 -8 6 -9 -41 -7 -75 4 -118 32 -145 94 -10 24 -36 74 -58 111
-21 37 -48 84 -60 105 l-21 37 29 -15 c17 -8 33 -19 36 -25 9 -14 45 -32 45
-23 0 4 -27 28 -60 53 -56 42 -76 60 -47 44 9 -5 9 -4 0 6 -6 7 -9 19 -6 26 4
12 15 9 52 -12 25 -14 97 -46 159 -70z m428 7 c14 5 28 9 32 9 10 -1 -20 -17
-45 -24 -18 -6 -23 -3 -22 11 0 10 3 13 5 6 4 -9 13 -9 30 -2z m-618 -58 c86
-126 152 -289 152 -373 0 -58 -17 -100 -39 -100 -15 1 -15 2 0 13 9 7 16 19
17 27 1 8 4 29 7 45 4 17 -4 6 -17 -25 -25 -60 -48 -73 -79 -44 -15 13 -22 15
-31 6 -20 -20 -37 -14 -59 21 l-20 32 7 -30 c4 -16 11 -31 16 -33 10 -4 11
-22 1 -22 -5 0 -17 7 -28 16 -19 14 -20 27 -21 182 0 92 -4 189 -8 216 -7 40
-6 48 5 44 28 -9 76 -99 94 -173 9 -41 19 -75 22 -75 8 0 -7 100 -23 160 -9
30 -27 74 -41 98 -23 41 -25 72 -4 72 6 0 28 -26 49 -57z m1237 -8 c114 -20
276 -67 350 -99 43 -20 61 -23 76 -16 16 9 19 7 19 -9 0 -12 11 -24 30 -33 29
-12 40 -28 21 -28 -15 0 -325 -210 -466 -315 -79 -59 -116 -82 -95 -60 27 29
30 35 12 25 -18 -8 -36 -9 -70 -1 -26 6 -68 13 -94 17 -27 3 -45 10 -42 16 3
5 -3 4 -15 -4 -12 -7 -21 -18 -21 -25 0 -7 -7 -13 -15 -13 -8 0 -15 7 -15 15
0 12 -15 15 -73 15 -73 0 -258 -23 -277 -35 -5 -3 -36 -13 -67 -21 -32 -8
-104 -39 -162 -69 -57 -30 -107 -52 -112 -49 -5 3 -7 -1 -4 -8 3 -7 -11 -24
-30 -37 -20 -13 -75 -66 -123 -117 l-88 -93 -13 34 c-20 56 -70 67 -98 22 -14
-21 -146 -99 -152 -89 -12 20 -107 86 -150 106 -35 15 -67 20 -133 21 -100 0
-105 5 -63 67 14 20 25 39 25 42 0 13 130 172 150 184 12 8 20 10 18 5 -40
-80 -52 -114 -51 -146 1 -48 5 -52 42 -39 21 7 31 7 33 0 6 -18 128 23 176 59
24 19 45 33 46 31 2 -2 13 -20 25 -41 l23 -38 24 28 24 28 0 -25 0 -25 20 30
c16 25 20 27 26 12 8 -23 27 -8 64 51 l27 43 22 -51 c18 -43 25 -49 37 -40 10
9 14 9 14 1 0 -6 5 -11 10 -11 6 0 10 8 10 18 1 16 1 16 11 0 9 -16 15 -13 55
29 49 53 64 92 64 173 l0 55 31 -38 c17 -21 44 -44 61 -53 27 -14 31 -14 46 4
10 11 26 21 37 23 18 4 20 12 20 79 0 41 -3 86 -7 100 -7 25 -6 25 34 22 28
-3 39 -1 34 7 -8 13 8 30 46 50 42 21 86 72 69 79 -8 2 -30 20 -50 38 -33 31
-34 33 -14 34 43 0 123 50 81 50 -7 0 1 9 17 21 29 19 40 20 255 16 147 -3
256 -11 315 -22z m-1371 -77 c8 -13 20 -50 27 -83 10 -50 9 -73 -4 -137 -18
-89 -52 -172 -67 -163 -5 3 -7 0 -4 -8 5 -15 -95 -127 -114 -127 -6 0 16 26
47 58 31 31 43 45 26 31 -41 -36 -90 -60 -101 -49 -5 4 -20 10 -34 12 -19 2
-26 11 -31 37 -4 20 -2 45 4 60 20 47 59 101 68 95 5 -3 8 -2 7 3 -1 4 10 31
24 58 14 28 31 69 37 93 7 25 18 42 26 42 23 0 29 -48 17 -119 -6 -36 -9 -67
-7 -69 11 -11 29 95 31 178 0 52 2 98 3 103 3 15 31 6 45 -15z m-754 -122 c0
-8 -5 -18 -12 -22 -15 -9 -128 -18 -128 -9 0 3 19 15 43 25 51 24 97 26 97 6z
m-97 -72 c11 -11 -16 -54 -34 -54 -12 0 -21 -12 -28 -37 -6 -20 -21 -48 -34
-62 -14 -14 -30 -43 -37 -63 -13 -44 -37 -50 -46 -13 -7 30 20 146 43 181 9
14 28 31 42 39 26 14 83 20 94 9z m596 -51 c-13 -21 -43 -59 -68 -85 -28 -31
-38 -48 -28 -48 14 0 45 31 95 95 l23 30 -23 -43 c-41 -78 -158 -169 -146
-114 2 9 11 16 19 14 11 -3 12 -1 1 10 -9 9 -15 10 -20 2 -11 -17 -68 -44 -94
-44 l-22 0 22 16 c12 8 27 12 32 9 5 -3 20 1 32 11 20 14 20 15 3 9 -11 -4
-33 -7 -48 -6 -16 1 -26 -3 -23 -8 3 -5 -3 -11 -14 -14 -38 -10 -20 9 48 48
37 22 70 41 74 43 3 2 4 -7 2 -20 -4 -21 -4 -21 5 -3 4 11 7 23 4 27 -4 9 32
29 41 23 3 -3 4 -2 1 2 -3 4 16 28 42 55 55 56 79 51 42 -9z m-508 -162 c-14
-26 -42 -162 -43 -203 0 -23 -4 -35 -11 -31 -6 4 -7 -8 -3 -33 5 -28 4 -35 -3
-24 -7 9 -11 10 -11 3 0 -6 5 -15 10 -18 6 -3 10 -14 10 -23 -1 -13 -6 -10
-24 11 -26 33 -26 31 20 233 23 98 29 111 45 107 14 -4 16 -10 10 -22z m938
-13 c-7 -13 -14 -16 -22 -10 -7 6 -25 12 -42 14 l-30 3 24 14 c13 7 21 8 17 2
-4 -7 1 -11 13 -11 10 0 21 -5 23 -12 3 -7 7 -6 11 5 3 9 2 17 -3 17 -6 0 -10
5 -10 11 0 8 4 8 15 -1 11 -9 12 -17 4 -32z m41 7 c-7 -9 -15 -13 -17 -11 -7
7 7 26 19 26 6 0 6 -6 -2 -15z m1470 -2 c0 -10 -52 -63 -62 -63 -15 0 -8 24
14 47 20 22 48 31 48 16z m571 -19 c12 -33 2 -66 -19 -62 -22 4 -37 55 -22 73
18 22 29 18 41 -11z m256 1 c9 -25 -4 -29 -17 -6 -7 15 -7 21 0 21 6 0 13 -7
17 -15z m-2317 -9 c0 -3 -4 -8 -10 -11 -5 -3 -10 -1 -10 4 0 6 5 11 10 11 6 0
10 -2 10 -4z m-447 -41 c-7 -21 -13 -19 -13 6 0 11 4 18 10 14 5 -3 7 -12 3
-20z m217 -2 c0 -5 -10 -19 -21 -33 l-21 -25 18 33 c18 32 24 38 24 25z m-175
-23 c3 -5 2 -10 -4 -10 -5 0 -13 5 -16 10 -3 6 -2 10 4 10 5 0 13 -4 16 -10z
m930 -10 c-11 -33 1 -37 67 -24 102 21 244 26 350 11 81 -10 101 -10 113 0 31
27 8 1 -69 -77 -66 -67 -82 -79 -102 -74 -54 14 -76 -59 -28 -93 20 -15 32
-40 50 -108 28 -105 41 -205 27 -205 -6 0 -12 24 -15 53 -6 75 -44 127 -121
167 l-62 33 27 -29 c30 -32 48 -73 48 -108 0 -35 -37 -76 -68 -76 -30 0 -76
27 -96 56 -20 29 -39 96 -30 103 5 3 16 20 25 36 12 24 21 30 47 29 38 -2 42
13 6 22 -29 7 -74 -27 -74 -58 0 -35 -27 -18 -38 25 -27 103 -18 161 28 184
18 9 20 13 8 13 -27 0 -56 -35 -64 -76 -5 -26 -1 -59 13 -106 11 -37 17 -68
14 -68 -4 0 -25 18 -46 41 -71 73 -175 111 -205 74 -6 -8 -10 -22 -7 -32 4
-15 5 -14 6 4 3 62 136 20 219 -69 20 -22 21 -27 8 -37 -8 -7 -24 -10 -36 -6
-26 8 -65 -16 -73 -44 -3 -12 -1 -21 4 -21 5 0 9 4 9 9 0 20 33 41 65 41 19 0
37 5 40 10 10 17 31 11 32 -8 1 -11 13 -36 27 -57 51 -75 23 -165 -47 -151
-17 4 -44 19 -60 34 -17 15 -28 20 -25 12 7 -23 68 -60 98 -60 45 0 75 31 75
77 l0 40 30 -18 c42 -26 62 -24 96 10 31 32 38 76 19 125 -13 36 4 33 41 -6
67 -74 77 -178 22 -246 -17 -20 -32 -35 -35 -32 -2 3 -19 -7 -37 -22 -38 -33
-93 -37 -131 -11 -24 16 -24 16 -10 -1 8 -10 23 -22 35 -26 14 -6 2 -9 -40 -9
-44 -1 -70 5 -99 22 -64 36 -80 66 -78 144 0 52 -2 64 -10 49 -6 -10 -8 -45
-6 -77 3 -48 10 -65 33 -89 16 -17 24 -30 17 -30 -6 0 -14 5 -17 10 -3 6 -11
10 -17 10 -16 0 21 -38 44 -46 13 -4 17 -11 13 -22 -5 -14 -4 -15 6 -4 18 17
48 15 55 -3 7 -18 -12 -44 -41 -55 -60 -22 -65 -22 -76 4 -10 21 -15 24 -27
14 -11 -10 -17 -9 -27 5 -15 20 -29 23 -22 4 3 -8 1 -20 -4 -28 -7 -11 -12
-12 -29 -1 -11 7 -20 8 -20 2 0 -5 9 -14 21 -20 16 -9 24 -8 38 4 21 19 52 21
69 4 19 -19 14 -55 -9 -71 -12 -9 -16 -17 -10 -21 6 -4 15 -25 21 -47 10 -35
14 -39 38 -37 23 3 27 -1 30 -24 2 -20 9 -28 23 -28 10 0 19 5 19 10 0 19 18
10 54 -25 20 -19 32 -35 26 -35 -5 0 -9 -3 -9 -7 4 -27 -4 -33 -42 -33 l-42 0
26 -21 c32 -24 37 -22 112 49 30 29 60 50 66 46 15 -9 -35 -69 -58 -69 -17 -1
-63 -37 -63 -50 0 -10 19 -4 34 11 9 8 20 12 26 9 5 -3 10 -1 10 4 0 6 5 11
10 11 6 0 10 -9 10 -21 0 -11 3 -18 8 -16 4 3 21 -6 37 -19 l30 -25 -30 7
c-16 4 -39 11 -49 17 -16 8 -18 6 -13 -7 5 -12 3 -15 -6 -9 -6 4 -23 6 -36 4
-15 -2 -21 1 -16 9 4 7 0 10 -11 8 -27 -4 -76 -50 -160 -151 -41 -48 -74 -82
-74 -74 0 14 48 75 114 144 22 24 36 46 32 50 -4 4 -11 1 -15 -6 -6 -9 -20
-11 -47 -7 l-39 6 -44 -94 c-43 -94 -44 -94 -67 -79 -23 15 -64 10 -64 -7 0
-16 22 -23 31 -9 4 7 11 10 16 6 4 -5 3 -11 -3 -15 -6 -4 -23 -40 -39 -80 -33
-86 -44 -90 -15 -6 22 62 20 90 -5 80 -30 -11 -16 40 18 68 l32 27 4 -23 c2
-15 10 2 21 48 10 40 15 83 13 98 -3 15 1 31 11 41 9 9 16 23 16 31 0 8 8 14
18 14 14 0 15 -2 2 -10 -20 -13 5 -14 29 -1 10 6 23 6 31 1 11 -7 11 -11 1
-24 -11 -13 -11 -19 0 -32 12 -14 14 -13 21 12 12 46 -15 67 -79 61 -49 -5
-52 -4 -58 21 -3 15 -18 65 -33 112 -23 75 -27 82 -32 55 -4 -16 -5 -64 -2
-105 3 -60 0 -79 -13 -95 -9 -11 -14 -15 -11 -8 5 8 -1 9 -24 0 -34 -13 -42
-32 -9 -22 14 5 25 2 30 -6 8 -12 11 -12 18 1 14 21 20 11 27 -52 6 -54 5 -58
-22 -82 -36 -31 -44 -32 -52 -3 -3 12 -22 55 -43 94 -20 40 -33 75 -28 79 15
9 10 24 -6 18 -23 -9 -19 1 36 76 52 70 60 103 16 62 -13 -12 -27 -22 -33 -22
-5 0 -20 -12 -33 -26 -27 -28 -42 -27 -56 4 -10 23 -28 31 -20 10 3 -8 -4 -13
-20 -13 -14 0 -25 4 -25 8 0 18 22 47 30 42 6 -3 7 0 5 8 -3 7 23 46 60 88 74
84 130 163 140 198 l7 23 -32 -18 c-112 -66 -240 -252 -240 -350 0 -30 -20
-42 -21 -12 0 13 -3 18 -5 12 -3 -6 -20 -10 -39 -8 -34 2 -35 1 -30 -29 2 -18
4 -47 4 -64 1 -18 6 -33 12 -33 6 0 8 7 5 15 -3 9 1 18 8 21 8 3 12 14 9 25
-4 13 0 19 11 19 9 0 16 5 16 12 0 6 3 8 6 5 4 -3 15 -2 25 3 12 7 20 6 24 -1
4 -6 13 -8 21 -5 29 11 15 -54 -21 -98 -19 -24 -35 -48 -35 -55 0 -15 -17 -14
-23 2 -2 6 -4 1 -4 -13 0 -42 -16 -150 -22 -154 -3 -2 -4 28 -3 66 4 78 -4
138 -18 138 -6 0 -8 -47 -5 -112 3 -71 1 -102 -4 -83 -5 17 -9 26 -10 20 -1
-5 -4 -28 -7 -50 -5 -39 -5 -40 13 -19 10 11 29 27 43 36 14 8 36 39 49 67 27
56 45 68 31 22 -4 -16 -6 -32 -3 -35 9 -8 -27 -87 -51 -114 -15 -17 -17 -25
-8 -31 8 -5 10 -19 6 -39 -9 -47 -24 -50 -24 -5 0 57 -17 22 -19 -40 -1 -28
-7 -55 -14 -60 -8 -6 -7 -7 5 -4 9 3 19 -1 22 -9 3 -8 10 -14 16 -14 6 0 4 7
-4 16 -9 8 -16 17 -16 19 0 2 29 25 65 50 36 26 65 52 66 58 0 8 2 8 6 0 3 -9
10 -10 24 -3 25 14 25 -4 1 -22 -23 -16 -37 -98 -17 -98 29 0 70 22 102 55 32
33 73 61 73 51 0 -3 -20 -33 -44 -68 -39 -55 -86 -155 -86 -182 0 -21 101 100
116 140 14 36 19 42 26 30 13 -23 -7 -85 -38 -117 -32 -33 -26 -49 8 -25 12 9
28 16 35 16 23 0 14 -28 -16 -49 -32 -23 -46 -27 -35 -9 4 7 3 8 -5 4 -6 -4
-9 -11 -6 -16 3 -4 -2 -13 -10 -20 -19 -16 -19 -40 -1 -40 7 0 20 -7 27 -17
15 -17 16 -18 -60 4 -20 5 -23 3 -18 -10 7 -19 -1 -21 -22 -8 -7 5 -10 14 -7
20 12 18 -1 12 -30 -14 -29 -27 -44 -32 -44 -15 0 7 -6 7 -19 0 -27 -14 -61
-12 -91 4 l-25 14 27 12 c21 10 26 19 25 45 -2 28 -5 31 -19 24 -27 -14 -32
-31 -14 -41 15 -8 14 -11 -8 -29 -14 -11 -31 -16 -41 -13 -15 6 -16 4 -5 -15
6 -13 10 -25 7 -27 -7 -8 -61 16 -74 33 -11 14 -16 12 -42 -16 -16 -17 -37
-31 -48 -31 -15 0 -16 -2 -3 -10 8 -5 26 -9 40 -9 23 0 24 1 5 10 -23 11 97 3
158 -11 73 -16 65 -27 -24 -36 -35 -4 -71 -7 -79 -8 -9 -1 -21 -5 -27 -9 -7
-5 -22 -3 -33 3 -15 8 -32 7 -63 -1 -71 -20 -331 -16 -366 5 -9 6 -12 5 -8 -1
12 -19 -17 -31 -103 -42 -203 -26 -420 -26 -404 0 3 6 12 8 20 5 8 -3 14 -1
14 4 0 6 14 10 31 10 20 0 29 4 27 13 -7 21 -51 38 -85 33 -18 -3 -33 -1 -33
3 0 11 93 31 121 25 20 -4 21 -3 5 4 -14 6 -16 11 -8 16 7 4 12 16 12 27 0 15
7 19 33 19 17 0 52 5 77 11 25 6 79 10 120 9 41 -2 125 -3 186 -4 89 -1 108
-3 95 -13 -14 -11 -13 -12 8 -13 18 0 63 20 99 46 3 2 -79 139 -121 202 -41
62 -176 227 -236 290 -61 63 -84 97 -36 52 23 -21 26 -22 42 -8 10 8 25 18 33
21 11 4 10 6 -4 6 -17 1 -15 15 2 16 4 1 17 6 30 14 16 8 27 9 36 2 17 -14 56
-2 56 17 0 13 -2 13 -18 -1 -20 -18 -32 -22 -32 -9 0 5 14 19 32 32 24 18 30
19 25 6 -4 -10 1 -24 13 -36 12 -12 15 -22 9 -26 -6 -3 -8 -12 -5 -20 3 -8 1
-14 -4 -14 -6 0 -10 5 -10 10 0 6 -15 10 -32 9 l-33 -1 28 -8 c37 -11 57 -28
57 -49 0 -12 -2 -13 -8 -3 -5 7 -15 10 -23 7 -9 -3 -24 3 -34 15 -20 22 -45
29 -27 7 14 -17 4 -57 -14 -57 -21 0 -29 29 -15 51 9 15 8 19 -4 19 -8 0 -15
-4 -15 -9 0 -5 -7 -17 -16 -25 -14 -15 -10 -22 45 -83 34 -37 61 -71 61 -75 0
-4 14 -15 30 -23 l31 -16 -29 58 c-37 72 -62 133 -56 133 2 0 27 -47 54 -105
28 -58 58 -109 68 -112 26 -9 150 -112 177 -147 37 -46 30 -21 -14 53 -41 70
-169 226 -178 217 -3 -2 3 -28 12 -56 9 -28 15 -54 12 -56 -5 -6 -18 31 -37
103 -6 23 -22 51 -35 61 -35 28 -31 31 18 20 103 -23 213 -123 296 -268 l31
-55 0 139 c0 135 1 142 31 207 18 38 35 67 39 64 4 -2 3 -33 -2 -69 -5 -35 -7
-129 -6 -207 l3 -144 24 65 c13 36 27 69 31 74 5 5 19 -4 33 -20 23 -27 24
-47 1 -82 -1 -2 -15 5 -30 15 l-29 18 20 -27 c21 -29 45 -29 77 -1 15 14 15
17 -3 46 -19 32 -19 32 2 37 12 3 26 16 30 28 6 15 5 21 -1 17 -6 -3 -10 -13
-10 -22 0 -11 -6 -14 -22 -9 -13 4 -34 9 -48 12 -14 3 -29 10 -35 15 -7 7 -4
8 7 4 23 -9 75 70 58 89 -5 8 -7 21 -4 30 6 16 -13 172 -24 190 -3 5 -14 -8
-25 -29 l-19 -39 -29 35 c-18 22 -24 37 -18 44 6 6 13 5 19 -5 7 -12 12 -12
22 -2 6 6 20 12 30 12 21 0 21 -4 7 62 -11 55 -74 198 -92 210 -6 4 -5 12 5
22 18 17 28 11 28 -16 0 -10 4 -18 9 -18 6 0 6 12 -1 31 -8 22 -15 29 -28 26
-30 -8 -44 7 -30 33 6 12 9 28 6 36 -7 18 10 18 21 1 13 -22 77 -10 88 16 6
12 20 23 33 25 12 2 22 9 22 15 0 7 8 -2 16 -20 11 -23 21 -30 32 -26 24 9 73
46 67 51 -2 2 -16 -5 -31 -17 -36 -28 -59 -28 -44 0 9 15 8 24 -1 35 -10 12
-9 13 5 8 11 -4 16 -1 16 10 0 9 -8 16 -21 16 -11 0 -35 17 -54 37 l-33 37 40
80 c76 153 179 285 298 383 60 50 224 141 279 156 20 5 23 10 18 36 -5 23 -3
29 7 25 8 -3 17 -1 21 5 11 19 27 12 20 -9z m1068 13 c13 -12 -42 -83 -65 -83
-15 0 -8 32 13 61 20 28 39 36 52 22z m-400 -119 c11 -11 -12 -43 -43 -59 -41
-21 -49 -1 -14 36 27 28 44 35 57 23z m-1003 -29 c0 -8 -7 -15 -15 -15 -8 0
-15 7 -15 15 0 8 7 15 15 15 8 0 15 -7 15 -15z m1170 -20 c-7 -8 -16 -15 -21
-15 -15 0 -10 22 9 36 20 15 29 0 12 -21z m910 -55 c0 -33 -9 -43 -27 -29 -13
12 -18 61 -6 72 12 12 33 -15 33 -43z m198 -23 c2 -15 -1 -27 -7 -27 -14 0
-33 38 -26 51 11 17 30 4 33 -24z m-3484 -37 c9 -13 9 -13 -5 -2 -14 11 -17 7
-23 -25 -3 -21 -6 -51 -7 -68 -1 -17 -5 -7 -9 25 -5 40 -3 63 8 85 11 21 17
26 20 15 3 -8 10 -22 16 -30z m2061 -104 l36 -20 25 30 c18 21 24 23 19 9 -21
-59 -21 -59 64 -98 45 -21 81 -40 81 -43 0 -3 -7 -19 -15 -37 -8 -18 -10 -24
-3 -14 53 77 58 82 58 58 0 -28 22 -37 198 -85 132 -37 152 -38 152 -10 0 8 5
14 10 14 6 0 10 -11 10 -24 0 -19 7 -26 28 -30 103 -21 222 -38 311 -43 l104
-6 -5 39 -6 39 16 -38 15 -38 76 4 c42 3 63 3 48 0 -24 -4 -28 -9 -25 -31 2
-21 8 -26 24 -24 19 3 22 -3 27 -75 6 -84 43 -242 60 -258 7 -7 8 -5 5 5 -30
86 -51 207 -52 299 l-1 104 58 13 c32 8 67 18 77 24 17 9 20 7 20 -10 0 -14
-4 -19 -12 -14 -8 5 -9 -3 -5 -27 41 -222 57 -320 57 -351 0 -21 4 -38 9 -38
4 0 7 -23 6 -51 -3 -39 -8 -54 -25 -66 -21 -15 -25 -13 -93 55 -40 39 -99 87
-132 107 -53 32 -65 35 -105 29 -56 -8 -83 -22 -190 -95 -118 -80 -219 -165
-233 -196 -10 -24 -8 -28 28 -59 22 -19 46 -32 53 -29 6 2 12 0 12 -5 0 -5 18
-19 40 -30 22 -11 40 -18 40 -15 0 3 10 -1 23 -9 29 -18 123 -40 137 -31 5 3
10 2 10 -4 0 -15 106 -33 189 -32 46 0 71 -3 62 -8 -10 -6 -10 -10 -1 -16 7
-4 13 1 16 12 4 12 20 23 47 30 23 7 49 15 59 18 14 6 16 1 11 -37 -3 -32 -2
-39 6 -28 9 12 11 11 11 -7 0 -25 -16 -39 -23 -21 -5 12 -9 -16 -11 -72 -1
-18 -6 -24 -19 -22 -14 2 -17 -2 -13 -22 5 -26 -7 -35 -19 -16 -3 6 -1 10 6
10 7 0 10 3 6 6 -15 15 -26 -8 -16 -34 6 -15 17 -56 24 -91 12 -55 12 -69 0
-98 -10 -25 -11 -33 -2 -33 7 -1 -21 -12 -62 -25 -63 -22 -92 -25 -206 -25
-72 0 -135 3 -138 7 -4 3 -2 13 5 20 9 11 9 16 0 22 -13 8 15 26 53 34 11 3 3
5 -18 6 -21 0 -47 -4 -59 -10 -34 -18 -32 -1 3 21 22 13 46 20 67 17 17 -1 32
1 32 5 0 4 -19 8 -42 8 l-43 1 30 15 30 14 -28 -5 c-19 -4 -26 -2 -22 5 10 16
57 12 97 -8 52 -27 38 1 -17 33 -61 36 -100 33 -141 -11 -38 -40 -46 -32 -12
12 13 15 17 25 10 20 -6 -4 -12 -3 -12 2 0 5 15 17 33 26 l32 17 -30 -6 c-16
-3 -45 -21 -63 -41 l-33 -34 -25 27 -26 28 21 -32 c12 -17 21 -37 21 -44 0
-18 -50 31 -62 61 -8 22 -10 23 -19 8 -13 -24 -21 -23 -65 7 -20 14 -40 23
-42 20 -3 -3 4 -12 16 -21 35 -25 26 -30 -45 -27 -102 5 -180 15 -163 21 8 3
27 18 42 34 25 27 26 29 5 22 -43 -12 5 23 53 40 44 15 44 15 12 16 -18 0 -46
-7 -62 -15 -35 -18 -40 -3 -8 19 12 9 19 16 15 16 -16 0 -53 -23 -84 -53 -18
-17 -33 -26 -33 -21 0 15 50 59 90 80 25 13 58 18 112 19 82 0 100 9 46 21
-69 15 -161 8 -213 -17 -28 -12 -54 -25 -60 -27 -31 -14 68 74 106 93 65 34
107 39 172 22 31 -8 57 -13 57 -11 0 3 -21 14 -46 24 -49 21 -127 26 -168 10
-14 -5 -26 -6 -26 -1 0 16 95 45 147 46 29 0 53 3 53 8 0 16 -151 12 -183 -5
-10 -5 -21 -7 -24 -5 -3 3 13 15 36 26 74 38 192 19 276 -44 61 -47 57 -26
-10 44 -94 99 -202 139 -301 112 -56 -15 -124 -78 -153 -140 -30 -63 -39 -59
-16 8 16 48 82 129 130 158 17 11 16 11 -9 3 -16 -6 -41 -19 -56 -30 -39 -28
-45 -25 -20 10 22 30 86 70 114 70 8 0 18 5 22 11 10 16 -58 3 -117 -23 -53
-22 -97 -64 -132 -126 l-24 -42 -32 50 c-30 46 -87 100 -106 100 -4 0 9 -18
28 -40 44 -48 73 -103 82 -155 l7 -40 -32 47 c-17 26 -51 60 -75 75 -41 26
-44 31 -39 61 7 39 -3 42 -17 6 -16 -44 -20 -20 -4 26 22 62 9 63 -17 2 -19
-42 -28 -52 -48 -52 -25 -1 -25 -1 -3 -10 17 -7 22 -17 21 -36 l-3 -26 -24 33
c-42 56 -119 128 -144 134 -35 9 -54 49 -41 83 7 18 7 33 1 43 -9 14 -14 13
-48 -5 -31 -17 -40 -19 -51 -8 -18 18 15 42 58 42 19 0 34 6 38 15 3 8 14 15
24 15 12 0 22 12 31 35 13 38 45 63 56 45 7 -11 -12 -45 -41 -74 -9 -9 -13
-20 -10 -24 4 -3 10 -2 14 4 4 6 18 17 31 23 20 11 26 10 40 -4 15 -15 15 -17
-4 -31 -11 -9 -32 -14 -47 -11 -37 5 -35 -9 2 -28 32 -17 40 -42 15 -51 -8 -4
-15 -16 -15 -27 0 -16 3 -18 11 -10 9 9 18 9 38 -1 21 -11 33 -11 60 -2 33 12
35 14 57 116 30 130 65 236 121 365 24 55 45 104 46 109 1 4 -16 18 -38 30
-32 17 -57 21 -128 21 l-87 0 -6 35 c-5 34 -44 188 -60 240 -6 21 3 16 53 -30
34 -30 78 -64 98 -74z m973 78 c2 -29 -2 -45 -16 -57 -19 -17 -21 -17 -37 -1
-12 12 -15 26 -11 47 14 69 59 77 64 11z m-2540 6 c24 -11 41 -24 38 -29 -4
-5 13 -16 36 -23 39 -13 43 -18 45 -51 3 -31 -2 -41 -33 -69 -36 -33 -80 -63
-58 -39 6 6 9 24 6 40 -3 26 -9 30 -48 36 -24 3 -53 14 -66 24 -19 16 -20 21
-9 35 12 14 10 16 -10 18 -13 0 -28 2 -34 3 -5 2 -20 3 -32 4 -19 1 -23 7 -23
36 l0 35 73 0 c50 0 85 -6 115 -20z m-211 -32 c-3 -7 -5 -2 -5 12 0 14 2 19 5
13 2 -7 2 -19 0 -25z m3380 17 c8 -22 -6 -33 -17 -15 -13 20 -12 30 0 30 6 0
13 -7 17 -15z m-3527 -14 c0 -8 -66 -26 -82 -23 -5 1 -8 -2 -8 -8 0 -5 -4 -10
-10 -10 -21 0 -9 18 23 34 35 17 77 21 77 7z m719 -75 c8 -44 8 -63 0 -73 -9
-10 -8 -17 1 -28 10 -13 10 -19 -4 -34 -17 -19 -117 -71 -135 -71 -19 0 -12
26 14 50 13 12 22 27 19 31 -3 5 0 19 6 31 7 16 4 13 -12 -7 -33 -43 -56 -65
-68 -65 -18 0 -24 32 -12 63 9 23 9 34 -1 45 -9 12 -9 16 1 19 6 3 10 8 7 13
-10 16 153 107 166 92 3 -4 11 -34 18 -66z m-620 23 c44 -19 51 -25 51 -49 0
-16 -6 -31 -12 -33 -7 -3 5 -5 27 -5 22 0 32 2 23 5 -10 2 -18 13 -18 24 0 18
3 17 28 -9 15 -16 42 -34 61 -41 40 -13 124 -61 119 -67 -3 -2 -29 5 -59 15
-94 33 -177 44 -260 32 -40 -5 -74 -9 -75 -8 -12 20 -51 147 -47 151 14 14
113 5 162 -15z m2391 -9 c-6 -10 -15 -22 -21 -25 -19 -12 -22 4 -5 30 19 29
42 25 26 -5z m-2546 -71 c24 -67 27 -83 15 -90 -19 -12 -25 -11 -39 6 -8 9
-10 29 -7 50 5 32 3 35 -18 35 -12 0 -25 6 -28 14 -6 14 27 66 41 66 4 0 20
-36 36 -81z m3426 16 c10 -26 4 -55 -11 -55 -12 0 -29 35 -29 59 0 29 28 26
40 -4z m167 -106 c-30 -61 -50 -143 -45 -185 3 -26 0 -29 -27 -32 l-31 -3 -20
86 c-14 59 -17 88 -10 94 6 5 37 17 69 27 31 10 57 21 57 26 0 5 -7 25 -15 45
-23 54 -18 61 16 26 l32 -31 -26 -53z m-3037 82 c0 -5 -5 -11 -10 -13 -7 -2
-7 -15 0 -38 8 -27 7 -38 -5 -49 -12 -12 -18 -13 -39 -1 -41 22 -41 42 0 78
38 32 54 39 54 23z m-76 -110 c10 -11 16 -24 15 -29 -2 -5 -14 4 -27 20 -26
31 -15 39 12 9z m129 -19 c30 -26 21 -48 -30 -67 -44 -17 -47 -17 -60 0 -19
27 -16 43 11 70 26 26 46 25 79 -3z m-207 -16 c88 -40 123 -79 126 -141 2 -28
8 -54 13 -58 7 -6 6 -10 -1 -13 -6 -2 -9 -19 -6 -37 l4 -32 -30 45 c-41 63
-88 105 -147 132 -66 30 -203 32 -285 4 -65 -23 -159 -112 -177 -167 -10 -32
-11 -32 -12 -7 -1 15 4 30 10 34 8 4 10 27 6 64 -6 67 10 101 66 144 67 51
130 67 257 63 101 -2 122 -6 176 -31z m-542 -43 c19 -160 19 -183 0 -205 -18
-20 -18 -21 -1 -15 15 6 16 4 6 -15 -11 -20 -14 -15 -39 53 -15 41 -41 102
-58 136 -33 65 -33 68 16 83 60 18 70 14 76 -37z m912 25 c8 -8 12 -22 9 -30
-6 -14 -9 -14 -36 -1 -17 8 -49 18 -71 21 -38 5 -40 6 -22 19 23 18 100 12
120 -9z m-970 -217 c14 -47 23 -94 21 -103 -3 -9 -1 -18 3 -20 5 -2 2 -19 -7
-38 l-15 -35 -10 35 c-8 27 -6 41 8 65 l17 30 -26 -24 -26 -23 -6 38 c-4 22
-15 75 -25 120 -9 44 -15 96 -12 115 l5 34 24 -54 c13 -30 35 -93 49 -140z
m923 178 c17 -6 31 -15 31 -19 0 -10 -50 -23 -58 -15 -3 3 1 5 9 6 8 0 -4 9
-26 19 -36 17 -37 19 -14 19 14 1 40 -4 58 -10z m-94 -15 c37 -24 70 -81 56
-98 -14 -17 -4 -26 30 -26 27 0 27 1 14 27 -16 30 -5 63 20 63 8 0 15 6 15 12
0 7 12 0 27 -15 l28 -27 -23 -16 c-29 -20 -29 -37 1 -28 22 7 22 7 2 -15 -11
-13 -27 -20 -37 -18 -15 4 -17 1 -12 -19 5 -20 2 -24 -15 -24 -28 0 -96 28
-88 36 4 4 -4 15 -18 25 -26 21 -50 81 -41 104 6 17 4 18 -18 9 -9 -3 -16 -18
-16 -33 0 -20 -2 -23 -10 -11 -15 24 -12 34 18 52 34 22 37 22 67 2z m3097
-63 c-29 -28 -42 -50 -47 -81 -4 -26 -10 -38 -15 -30 -9 15 4 75 22 97 12 15
67 53 77 53 2 0 -15 -18 -37 -39z m279 -8 c13 -16 12 -17 -3 -4 -17 13 -22 21
-14 21 2 0 10 -8 17 -17z m-4114 -55 c-2 -13 -4 -5 -4 17 -1 22 1 32 4 23 2
-10 2 -28 0 -40z m4166 5 c11 -10 17 -12 13 -5 -4 6 -3 12 3 12 15 0 18 -22 9
-64 -24 -105 -137 -164 -188 -99 -32 41 -22 88 29 136 46 42 99 50 134 20z
m-3459 -14 c-4 -8 1 -9 17 -5 23 7 23 7 5 -8 -16 -13 -22 -13 -28 -3 -6 9 -12
7 -23 -7 -8 -11 -15 -15 -15 -8 0 6 10 18 22 26 27 19 32 20 22 5z m-329 -14
c92 -15 165 -86 180 -173 5 -34 3 -47 -10 -62 -16 -18 -19 -18 -41 -3 -26 16
-23 33 4 33 13 0 14 -2 4 -9 -11 -7 -11 -9 1 -14 12 -4 14 0 11 20 -4 20 -1
24 10 20 10 -4 13 -1 10 7 -4 11 -14 8 -44 -11 l-38 -25 25 -24 c15 -13 24
-25 22 -27 -61 -35 -68 -35 -60 6 8 33 -10 132 -26 148 -5 5 -7 -7 -5 -29 4
-43 -27 -92 -59 -92 -34 0 -69 44 -69 88 0 52 33 96 66 88 36 -9 29 3 -13 20
-22 10 -49 13 -70 9 -39 -7 -39 -9 -13 -35 35 -35 22 -115 -24 -145 -33 -22
-64 -11 -81 28 l-13 31 -16 -38 c-9 -21 -16 -49 -16 -63 0 -14 -4 -22 -10 -18
-6 4 -8 15 -5 25 3 10 1 21 -5 25 -5 3 -10 1 -10 -4 0 -6 -4 -11 -9 -11 -13 0
15 106 39 145 12 19 35 45 53 57 37 26 112 48 147 43 14 -2 43 -7 65 -10z
m1302 -51 c9 -25 -17 -35 -76 -30 -63 6 -73 13 -47 32 28 20 115 19 123 -2z
m2168 -111 c12 -10 31 -24 41 -31 11 -7 3 -5 -16 5 -37 20 -84 82 -95 123 -3
14 6 1 20 -27 15 -29 37 -61 50 -70z m-225 92 c0 -8 -7 -15 -15 -15 -16 0 -20
12 -8 23 11 12 23 8 23 -8z m297 -35 c23 -21 44 -36 47 -33 3 4 6 1 6 -6 0
-14 -60 -42 -73 -34 -5 3 -12 16 -17 29 -5 13 -21 26 -35 30 -26 6 -33 32 -14
51 16 16 41 6 86 -37z m-2326 3 c48 -29 51 -73 4 -73 -15 0 -33 12 -48 32 -41
52 -15 76 44 41z m270 -29 c11 -30 3 -67 -14 -61 -6 2 -15 15 -20 30 -17 52
15 80 34 31z m2005 -21 c-7 -7 -26 7 -26 19 0 6 6 6 15 -2 9 -7 13 -15 11 -17z
m-2059 -19 c19 -19 22 -29 14 -37 -14 -14 -81 16 -81 36 0 35 32 36 67 1z
m2133 -44 c8 -5 11 -10 5 -10 -5 0 -17 5 -25 10 -8 5 -10 10 -5 10 6 0 17 -5
25 -10z m-4011 -50 c0 -9 -4 -8 -9 5 -5 11 -9 27 -9 35 0 9 4 8 9 -5 5 -11 9
-27 9 -35z m791 36 c0 -8 -4 -18 -10 -21 -5 -3 -10 3 -10 14 0 12 5 21 10 21
6 0 10 -6 10 -14z m-860 -32 c0 -21 -4 -33 -10 -29 -17 10 -11 65 7 65 2 0 3
-16 3 -36z m40 -5 c0 -11 -4 -17 -10 -14 -5 3 -10 15 -10 26 0 11 5 17 10 14
6 -3 10 -15 10 -26z m3260 22 c0 -5 -8 -17 -17 -27 -20 -20 -32 -1 -13 21 14
17 30 20 30 6z m-3103 -33 c-3 -8 -6 -5 -6 6 -1 11 2 17 5 13 3 -3 4 -12 1
-19z m-16 -29 c-1 -13 -1 -35 -1 -48 0 -39 -11 -44 -31 -14 -23 34 -24 43 -4
43 13 0 21 27 15 55 -1 6 3 5 10 -1 6 -6 11 -22 11 -35z m369 24 c0 -90 -111
-215 -161 -182 -11 7 -10 13 9 27 39 31 7 35 -59 8 -20 -9 -39 32 -39 84 l0
39 63 -5 c51 -4 72 0 117 20 68 30 70 30 70 9z m738 5 c-3 -7 -11 -13 -18 -13
-7 0 -15 6 -17 13 -3 7 4 12 17 12 13 0 20 -5 18 -12z m-672 -55 c-3 -8 -6
-19 -6 -24 0 -12 -27 -12 -35 1 -12 20 5 48 26 43 12 -4 18 -11 15 -20z m2545
-6 c-16 -16 -26 0 -10 19 9 11 15 12 17 4 2 -6 -1 -17 -7 -23z m-3157 6 c9
-31 19 -208 11 -201 -8 8 -35 150 -35 191 0 30 16 37 24 10z m216 -27 c-10
-27 -33 -28 -25 -1 3 8 7 23 10 32 4 11 9 13 16 6 6 -6 6 -19 -1 -37z m3210
24 c0 -11 -4 -20 -10 -20 -5 0 -10 9 -10 20 0 11 5 20 10 20 6 0 10 -9 10 -20z
m-2792 -42 l-1 -53 -6 45 c-6 43 -5 60 5 60 2 0 3 -24 2 -52z m-495 -16 c37
-16 34 -34 -5 -30 -26 3 -33 9 -45 43 -12 39 -12 39 5 19 9 -11 29 -25 45 -32z
m127 27 c0 -5 -9 -18 -20 -29 -18 -18 -18 -20 -2 -20 9 0 23 -9 30 -20 15 -24
5 -26 -26 -4 -12 8 -22 11 -22 5 0 -5 8 -15 18 -21 13 -9 10 -9 -18 -4 -19 3
-38 8 -42 11 -15 8 -8 44 10 50 9 4 25 17 35 30 18 22 37 23 37 2z m2950 2 c0
-12 -20 -25 -27 -18 -7 7 6 27 18 27 5 0 9 -4 9 -9z m-1912 -53 c48 -184 50
-202 35 -220 -10 -11 -24 -16 -38 -12 -13 3 -26 0 -30 -7 -6 -9 -2 -11 13 -7
12 4 22 2 22 -3 0 -5 -4 -9 -10 -9 -5 0 -10 -7 -10 -15 0 -8 -7 -15 -15 -15
-8 0 -15 5 -15 11 0 5 5 7 10 4 6 -3 10 -2 10 4 0 5 -3 11 -8 13 -9 4 8 298
18 298 4 0 12 -19 18 -42z m2392 22 c0 -5 -5 -10 -11 -10 -5 0 -7 5 -4 10 3 6
8 10 11 10 2 0 4 -4 4 -10z m-660 -25 c-7 -8 -17 -15 -22 -15 -6 0 -5 7 2 15
7 8 17 15 22 15 6 0 5 -7 -2 -15z m85 -5 c-3 -5 -11 -10 -16 -10 -6 0 -7 5 -4
10 3 6 11 10 16 10 6 0 7 -4 4 -10z m-3018 -42 c-3 -7 -5 -2 -5 12 0 14 2 19
5 13 2 -7 2 -19 0 -25z m62 -14 c-7 -9 -21 -13 -32 -10 -16 4 -18 1 -13 -22 4
-15 9 -52 11 -82 l4 -55 -14 65 c-19 90 -19 97 11 127 24 24 27 25 36 9 7 -12
6 -22 -3 -32z m3351 31 c0 -8 -4 -15 -10 -15 -5 0 -10 7 -10 15 0 8 5 15 10
15 6 0 10 -7 10 -15z m90 -16 c0 -5 -4 -9 -10 -9 -5 0 -10 7 -10 16 0 8 5 12
10 9 6 -3 10 -10 10 -16z m624 -21 c21 -41 20 -55 -3 -67 -17 -9 -18 -6 -17
44 0 30 1 55 2 55 2 0 10 -14 18 -32z m-824 -8 c0 -25 -18 -36 -26 -16 -8 21
3 49 16 41 5 -3 10 -15 10 -25z m-3185 -5 c0 -28 -29 -25 -33 3 -3 19 0 23 15
20 10 -2 18 -12 18 -23z m50 4 c11 -17 -1 -21 -15 -4 -8 9 -8 15 -2 15 6 0 14
-5 17 -11z m3415 1 c0 -5 -4 -10 -10 -10 -5 0 -10 5 -10 10 0 6 5 10 10 10 6
0 10 -4 10 -10z m-2870 -77 l-5 -78 -3 64 c-3 56 1 91 10 91 2 0 1 -35 -2 -77z
m1256 32 c16 -40 19 -68 4 -45 -7 11 -10 11 -10 2 0 -7 -4 -11 -9 -8 -10 6
-21 -16 -21 -42 0 -13 3 -13 16 4 14 18 15 18 8 -6 -5 -20 -4 -23 7 -12 35 33
188 -1 246 -55 33 -30 34 -32 7 -14 -71 46 -223 86 -238 62 -5 -7 -1 -8 11 -4
14 5 13 1 -6 -20 -29 -32 -35 -33 -68 -7 -19 14 -21 20 -10 20 12 0 16 9 15
35 -1 19 -2 35 -4 35 -1 0 -10 -3 -18 -6 -12 -5 -14 -10 -6 -19 7 -9 -1 -15
-33 -25 -23 -7 -59 -21 -79 -31 -21 -11 -56 -19 -78 -19 -41 0 -41 0 -26 -22
9 -12 16 -30 16 -39 0 -9 16 -33 35 -52 55 -55 48 -121 -20 -196 -47 -52 -107
-75 -179 -69 -31 3 -57 0 -59 -5 -6 -20 -47 6 -70 46 -24 40 -36 94 -42 184
-2 33 3 49 21 70 12 15 21 30 18 35 -3 4 6 29 20 55 l24 48 13 -28 c10 -22 10
-30 0 -40 -11 -10 -12 -7 -7 13 7 24 6 24 -18 -5 -30 -35 -33 -49 -8 -36 9 5
37 15 62 22 25 7 55 21 67 32 16 15 30 18 53 13 20 -4 39 0 55 10 13 9 29 13
34 9 6 -3 22 2 36 11 14 9 31 14 39 11 10 -4 16 2 18 16 2 15 9 21 21 19 9 -2
17 2 17 9 0 8 3 9 13 0 8 -6 17 -7 21 -3 4 4 18 7 29 8 62 2 77 5 77 14 0 6
-8 10 -17 10 -13 0 -15 2 -5 8 7 5 10 16 6 25 -12 33 7 16 22 -18z m1154 15
c0 -5 -5 -10 -11 -10 -5 0 -7 5 -4 10 3 6 8 10 11 10 2 0 4 -4 4 -10z m-2442
-51 c-3 -20 -5 -19 -9 9 -3 20 -2 29 4 23 5 -5 7 -19 5 -32z m2832 15 c0 -8
-4 -14 -10 -14 -5 0 -10 9 -10 21 0 11 5 17 10 14 6 -3 10 -13 10 -21z m-1310
-68 c0 -6 -16 6 -35 26 -19 21 -35 43 -35 50 1 7 16 -5 35 -26 19 -22 35 -44
35 -50z m-2030 14 c0 -5 -2 -10 -4 -10 -3 0 -8 5 -11 10 -3 6 -1 10 4 10 6 0
11 -4 11 -10z m1820 6 c0 -3 -4 -8 -10 -11 -5 -3 -10 -1 -10 4 0 6 5 11 10 11
6 0 10 -2 10 -4z m162 -28 c-9 -9 -12 -7 -12 12 0 19 3 21 12 12 9 -9 9 -15 0
-24z m-55 16 c-3 -3 -12 -4 -19 -1 -8 3 -5 6 6 6 11 1 17 -2 13 -5z m1789 -10
c-3 -9 -6 -20 -6 -25 0 -5 -9 -9 -20 -9 -25 0 -25 5 -2 29 21 24 36 26 28 5z
m-101 -8 c12 -11 7 -15 -34 -20 -26 -3 -64 -15 -84 -25 -20 -10 -37 -15 -37
-10 0 5 14 15 30 24 17 9 30 20 30 25 0 8 20 13 68 19 7 0 20 -5 27 -13z
m-2295 -20 c0 -3 -4 -8 -10 -11 -5 -3 -10 -1 -10 4 0 6 5 11 10 11 6 0 10 -2
10 -4z m2416 -24 l22 -7 -26 -62 c-27 -67 -29 -68 -52 -53 -13 9 -13 12 3 24
22 17 22 26 -3 26 -13 0 -22 9 -26 25 -3 14 -13 25 -20 25 -11 0 -12 -5 -5
-19 9 -16 7 -17 -15 -13 -19 3 -22 7 -13 18 14 17 5 18 -24 3 -14 -8 -19 -8
-12 -1 27 29 124 48 171 34z m-3889 -64 c-3 -8 -6 -5 -6 6 -1 11 2 17 5 13 3
-3 4 -12 1 -19z m1223 3 c0 -5 -7 -12 -16 -15 -14 -5 -15 -4 -4 9 14 17 20 19
20 6z m-305 -41 c3 -5 1 -10 -4 -10 -6 0 -11 5 -11 10 0 6 2 10 4 10 3 0 8 -4
11 -10z m-955 -116 c0 -8 -4 -12 -10 -9 -5 3 -10 13 -10 21 0 8 5 12 10 9 6
-3 10 -13 10 -21z m-157 2 c4 -11 1 -13 -11 -10 -12 4 -13 3 -4 -3 7 -5 42 -8
77 -6 64 4 65 4 65 -20 0 -44 -10 -57 -45 -57 -18 0 -38 7 -45 15 -9 11 -23
14 -44 10 -30 -6 -30 -5 -11 10 19 15 19 17 3 29 -10 7 -18 21 -18 30 0 20 26
21 33 2z m212 -5 c-3 -6 -11 -11 -17 -11 -6 0 -6 6 2 15 14 17 26 13 15 -4z
m2472 -68 c13 -34 -81 -88 -116 -66 -30 19 -23 40 21 62 52 25 86 27 95 4z
m393 -14 c0 -6 -4 -7 -10 -4 -5 3 -10 11 -10 16 0 6 5 7 10 4 6 -3 10 -11 10
-16z m-727 -34 c9 -19 13 -35 8 -35 -5 0 -12 6 -15 13 -4 6 -4 1 -2 -13 5 -24
4 -24 -9 -6 -13 17 -15 18 -15 3 0 -9 -5 -17 -11 -17 -6 0 -9 7 -5 15 3 8 1
15 -3 15 -5 0 -12 -7 -15 -16 -4 -9 -9 -14 -12 -11 -3 3 1 15 8 26 11 18 11
23 -1 30 -10 6 -6 11 15 19 16 6 32 11 35 11 3 1 13 -15 22 -34z m1436 21 c-2
-2 -18 -7 -34 -11 l-30 -6 30 14 c27 13 45 14 34 3z m-1249 -40 c0 -3 -7 -2
-17 1 -12 5 -14 3 -8 -7 6 -10 4 -12 -8 -7 -9 3 -19 2 -22 -3 -4 -6 -11 -10
-17 -10 -7 0 1 13 16 29 24 25 31 28 42 16 8 -7 14 -16 14 -19z m-466 -7 c-19
-22 -19 -22 4 -10 12 7 22 8 22 2 0 -5 -6 -12 -12 -14 -10 -4 -9 -8 2 -16 13
-9 12 -11 -5 -11 -17 0 -18 -2 -5 -10 11 -8 6 -10 -20 -8 -33 3 -35 5 -38 43
-2 29 0 36 7 25 9 -13 12 -13 28 3 25 25 40 21 17 -4z m631 -23 c49 -21 48
-53 -1 -62 -40 -7 -84 8 -84 30 0 8 -5 16 -12 18 -6 2 -8 10 -4 16 10 16 59
15 101 -2z m1280 4 c11 -5 18 -9 15 -10 -14 -6 -230 -14 -230 -9 0 3 5 10 12
17 14 14 172 15 203 2z m-1598 -51 l28 -12 -25 -7 c-14 -5 -72 -8 -130 -8
l-105 1 70 8 c55 7 112 19 132 28 1 1 14 -4 30 -10z m-2230 -14 c0 -11 -12
-15 -46 -15 -36 1 -42 3 -28 11 9 6 27 7 38 4 15 -5 19 -4 15 4 -4 6 -1 11 7
11 7 0 14 -7 14 -15z m3883 -30 c-13 -16 -70 -21 -70 -6 0 11 23 18 59 20 20
1 21 -1 11 -14z m-2363 -11 c2 -7 -10 -14 -27 -16 -16 -3 -30 -1 -30 4 0 5
-24 8 -52 7 -29 -1 -57 0 -63 1 -30 7 -37 -3 -12 -16 16 -9 26 -18 24 -21 -3
-3 -11 -2 -17 2 -6 4 -61 8 -121 10 -104 2 -130 7 -116 21 21 21 407 28 414 8z
m2253 -15 c12 -8 8 -9 -15 -6 -16 3 -45 -1 -65 -9 -80 -31 -167 -39 -427 -39
-145 0 -263 3 -263 7 0 3 -8 9 -17 11 -21 5 218 13 352 11 61 -1 79 1 55 6
-22 5 10 7 85 7 104 0 110 -1 50 -7 l-70 -6 80 -2 c44 -1 87 3 95 8 12 8 10
10 -10 11 -17 1 -12 4 15 9 62 11 119 11 135 -1z m-3905 -19 c-3 -5 -12 -7
-20 -3 -21 7 -19 13 6 13 11 0 18 -4 14 -10z m1609 -5 c8 -8 22 -12 30 -9 22
8 68 -4 61 -16 -4 -6 15 -9 47 -8 l53 1 -45 7 c-45 7 -45 7 15 8 33 0 69 -3
80 -8 19 -7 18 -8 -5 -13 -45 -10 -300 -14 -300 -4 0 5 -14 6 -31 2 -17 -4
-52 -4 -77 0 -38 6 -43 9 -28 17 14 8 21 7 27 -3 6 -10 9 -11 9 -1 0 6 9 12
21 12 11 0 18 -3 16 -7 -3 -5 40 -9 94 -10 58 -1 99 2 99 8 0 6 -15 9 -32 8
-77 -6 -128 1 -128 16 0 20 73 20 94 0z m1032 -11 c22 -11 53 -15 94 -12 35 2
60 -1 61 -7 0 -5 3 -4 6 3 2 6 9 12 14 12 6 0 7 -4 4 -10 -3 -6 1 -7 9 -4 9 3
16 2 16 -4 0 -9 -93 -19 -265 -27 -49 -2 -79 -1 -66 2 19 4 21 7 10 14 -11 7
-9 9 9 9 12 0 22 -6 22 -12 0 -9 4 -8 11 2 8 11 12 12 16 3 2 -7 14 -13 25
-13 16 0 18 3 9 14 -19 22 -66 24 -154 5 -92 -20 -440 -36 -377 -17 30 9 32
11 15 18 -22 8 79 19 285 30 204 11 220 11 256 -6z m-2732 -33 c-9 -10 -26 18
-18 30 5 9 9 8 14 -7 4 -10 6 -21 4 -23z m136 13 c0 -2 -7 -4 -15 -4 -8 0 -15
4 -15 10 0 5 7 7 15 4 8 -4 15 -8 15 -10z m870 -10 c-36 -7 -96 -12 -135 -12
l-70 1 85 8 c47 4 103 12 125 17 22 5 44 6 50 3 5 -3 -20 -11 -55 -17z m-1030
1 c9 -11 25 -14 51 -11 39 4 59 -6 37 -20 -6 -4 -13 -3 -15 2 -2 6 -16 9 -31
6 -18 -2 -36 4 -52 17 -14 11 -20 20 -14 21 6 0 17 -7 24 -15z m2132 8 c-12
-2 -20 -9 -17 -14 4 -5 -3 -9 -14 -9 -23 0 -28 15 -8 23 6 3 23 5 37 5 23 -1
24 -1 2 -5z m-1337 -13 c13 -6 -6 -8 -56 -7 -42 1 -75 5 -72 10 6 10 103 8
128 -3z m-665 -20 c0 -5 -2 -10 -4 -10 -3 0 -8 5 -11 10 -3 6 -1 10 4 10 6 0
11 -4 11 -10z"/>
<path d="M1791 2664 c0 -11 3 -14 6 -6 3 7 2 16 -1 19 -3 4 -6 -2 -5 -13z"/>
<path d="M1765 2563 c-18 -14 -18 -15 -2 -9 10 3 23 6 28 6 5 0 9 5 9 10 0 14
-12 12 -35 -7z"/>
<path d="M1655 2556 c11 -8 24 -12 29 -8 5 3 1 9 -10 13 -31 12 -39 10 -19 -5z"/>
<path d="M2490 2300 c0 -5 5 -10 11 -10 5 0 7 5 4 10 -3 6 -8 10 -11 10 -2 0
-4 -4 -4 -10z"/>
<path d="M2155 1820 c-4 -6 -1 -17 5 -25 10 -12 10 -18 1 -29 -10 -12 -7 -18
14 -32 51 -33 84 19 45 69 -22 27 -54 35 -65 17z"/>
<path d="M1552 1714 c30 -32 25 -60 -8 -47 -17 6 -17 5 -6 -10 11 -13 17 -14
33 -4 28 17 23 40 -13 67 l-33 23 27 -29z"/>
<path d="M2000 1720 c0 -5 5 -10 10 -10 6 0 10 -9 10 -20 0 -11 -5 -20 -12
-20 -6 0 -3 -9 7 -20 26 -28 69 -23 73 8 5 36 -24 72 -58 72 -17 0 -30 -4 -30
-10z"/>
<path d="M1637 1695 c-27 -25 -27 -27 -10 -50 16 -21 24 -23 79 -20 58 3 63 2
90 -27 40 -41 124 -102 131 -94 4 3 4 7 2 9 -2 2 -26 19 -54 39 -61 44 -111
95 -102 105 9 9 -32 53 -50 53 -7 0 -13 -7 -13 -15 0 -8 -9 -20 -19 -27 -10
-6 -17 -18 -14 -25 7 -17 -15 -17 -33 1 -19 19 -18 26 8 53 29 31 20 29 -15
-2z"/>
<path d="M2277 1683 c-4 -3 1 -12 10 -19 16 -11 16 -15 3 -39 -8 -15 -34 -38
-57 -52 -42 -25 -61 -43 -24 -23 33 17 35 11 7 -15 -14 -13 -26 -30 -26 -37 0
-7 7 -2 16 10 29 42 109 70 98 35 -5 -15 -4 -16 5 -3 19 26 12 33 -27 28 l-38
-6 30 31 c36 35 39 36 48 5 5 -20 6 -20 7 -3 0 11 -6 33 -14 49 -8 15 -12 32
-9 37 6 10 -19 12 -29 2z"/>
<path d="M1483 1663 c9 -2 23 -2 30 0 6 3 -1 5 -18 5 -16 0 -22 -2 -12 -5z"/>
<path d="M2235 1623 c-22 -19 -31 -31 -20 -25 19 9 74 63 64 62 -2 -1 -22 -17
-44 -37z"/>
<path d="M1505 1619 l-40 -6 36 -2 c33 -1 59 -15 59 -32 0 -4 -12 -22 -27 -41
-26 -31 -26 -32 -3 -13 14 11 29 26 33 33 13 20 27 14 27 -12 0 -13 7 -26 15
-30 13 -5 14 -2 5 15 -9 15 -8 24 1 36 12 13 16 12 37 -13 21 -26 23 -26 17
-6 -4 15 -2 22 7 22 7 0 2 6 -12 14 -16 8 -29 9 -37 4 -19 -15 -56 -5 -68 17
-8 17 -17 19 -50 14z"/>
<path d="M1505 1580 c-3 -6 1 -7 9 -4 18 7 21 14 7 14 -6 0 -13 -4 -16 -10z"/>
<path d="M2160 1575 c-14 -8 -20 -14 -14 -15 5 0 19 7 30 15 24 18 16 19 -16
0z"/>
<path d="M2100 1539 c7 -11 14 -19 16 -16 7 7 -7 37 -17 37 -6 0 -5 -9 1 -21z"/>
<path d="M1577 1491 c-4 -17 -3 -21 5 -13 5 5 8 16 6 23 -3 8 -7 3 -11 -10z"/>
<path d="M1536 1462 c-2 -4 -16 -48 -30 -98 -14 -50 -28 -99 -32 -110 -5 -13
-4 -16 4 -9 6 6 23 55 37 110 15 55 29 103 32 107 2 5 2 8 -1 8 -3 0 -7 -4
-10 -8z"/>
<path d="M1882 1440 c0 -14 2 -19 5 -12 2 6 2 18 0 25 -3 6 -5 1 -5 -13z"/>
<path d="M1942 1430 c0 -14 2 -19 5 -12 2 6 2 18 0 25 -3 6 -5 1 -5 -13z"/>
<path d="M1790 1421 c0 -6 4 -13 10 -16 6 -3 7 1 4 9 -7 18 -14 21 -14 7z"/>
<path d="M1969 1403 c-13 -16 -12 -17 4 -4 9 7 17 15 17 17 0 8 -8 3 -21 -13z"/>
<path d="M1788 1363 c7 -3 16 -2 19 1 4 3 -2 6 -13 5 -11 0 -14 -3 -6 -6z"/>
<path d="M1380 1325 c0 -3 9 -15 20 -27 11 -12 20 -16 20 -10 0 7 8 12 18 12
14 0 15 2 2 9 -8 6 -18 7 -22 5 -4 -3 -8 0 -8 5 0 6 -7 11 -15 11 -8 0 -15 -2
-15 -5z"/>
<path d="M1290 1310 c-8 -5 -11 -10 -7 -10 4 0 3 -10 -3 -22 l-11 -23 17 23
c23 31 38 28 60 -13 22 -41 41 -48 21 -7 -8 15 -12 33 -9 41 3 10 0 12 -11 8
-9 -3 -19 -2 -22 3 -8 12 -16 12 -35 0z"/>
<path d="M1803 1313 c9 -3 17 -7 17 -10 0 -3 -8 -12 -17 -20 -10 -8 -3 -6 14
3 26 14 35 16 45 6 9 -9 6 -18 -13 -39 l-24 -28 26 23 c31 27 43 28 29 3 -5
-11 -10 -30 -9 -43 1 -16 5 -10 14 20 13 40 13 44 -8 65 -13 13 -35 22 -57 23
-19 1 -27 -1 -17 -3z"/>
<path d="M1287 1163 c-3 -5 3 -45 13 -89 11 -43 25 -112 32 -153 12 -71 13
-73 24 -45 9 19 11 60 7 124 -7 117 -14 144 -39 149 -10 2 -22 8 -25 13 -4 6
-9 6 -12 1z"/>
<path d="M1960 1103 c0 -12 -6 -24 -12 -26 -10 -4 -10 -6 -1 -6 6 -1 15 4 18
9 9 15 41 12 54 -4 14 -16 45 -11 63 12 11 13 10 14 -9 4 -33 -18 -53 -15 -53
8 0 18 -2 19 -20 8 -17 -11 -22 -10 -30 2 -8 12 -10 11 -10 -7z"/>
<path d="M1434 1055 c0 -14 4 -25 9 -25 10 0 9 38 -2 44 -5 3 -8 -5 -7 -19z"/>
<path d="M2018 1034 c-12 -13 -14 -22 -6 -38 11 -25 47 -51 56 -41 4 4 -1 11
-10 16 -28 16 -42 48 -27 65 16 19 7 18 -13 -2z"/>
<path d="M1431 1004 c0 -11 3 -14 6 -6 3 7 2 16 -1 19 -3 4 -6 -2 -5 -13z"/>
<path d="M1873 958 c-18 -23 -24 -69 -12 -85 10 -11 10 -14 -2 -11 -9 2 -14
-6 -15 -22 0 -14 -3 -30 -6 -36 -4 -5 -3 -16 2 -24 6 -10 18 6 44 60 42 87 45
104 15 95 -18 -6 -20 -4 -14 14 7 24 2 27 -12 9z"/>
<path d="M1531 632 c-6 -12 -11 -26 -11 -32 0 -7 -16 -30 -35 -52 -37 -44 -38
-66 -2 -46 32 17 49 36 36 40 -6 2 -2 22 11 52 20 49 21 76 1 38z"/>
<path d="M1665 589 c-4 -6 -5 -12 -2 -15 2 -3 7 2 10 11 7 17 1 20 -8 4z"/>
<path d="M919 499 c20 -19 50 -66 67 -105 24 -55 34 -68 50 -66 10 2 21 6 23
7 8 9 -51 93 -90 129 -64 58 -90 76 -50 35z"/>
<path d="M1390 523 c1 -12 70 -119 70 -109 0 5 7 3 15 -4 12 -10 15 -10 15 0
0 6 -8 14 -18 17 -10 2 -30 26 -45 54 -27 46 -37 59 -37 42z"/>
<path d="M1604 519 c-3 -6 -1 -16 5 -22 9 -9 10 -7 5 7 -6 15 -4 17 6 11 9 -5
11 -4 6 3 -9 15 -13 15 -22 1z"/>
<path d="M1529 513 c0 -5 -2 -16 -4 -25 -2 -10 2 -15 10 -12 7 3 11 14 8 25
-5 19 -12 25 -14 12z"/>
<path d="M1568 478 c-9 -7 -18 -30 -20 -50 -5 -44 9 -51 18 -10 4 15 13 37 20
50 16 24 7 29 -18 10z"/>
<path d="M1316 464 c-3 -8 0 -11 8 -8 7 3 18 -2 25 -10 7 -8 19 -12 27 -9 9 3
12 0 9 -9 -3 -8 4 -23 17 -34 l22 -19 -18 30 -19 30 27 -24 c14 -14 26 -20 26
-14 0 17 -73 71 -89 65 -8 -2 -11 0 -8 5 3 5 0 10 -8 10 -8 0 -16 -6 -19 -13z"/>
<path d="M1470 460 c6 -11 13 -20 16 -20 2 0 0 9 -6 20 -6 11 -13 20 -16 20
-2 0 0 -9 6 -20z"/>
<path d="M1506 431 c-4 -7 -5 -15 -2 -18 9 -9 19 4 14 18 -4 11 -6 11 -12 0z"/>
<path d="M1646 413 c-6 -14 -5 -15 5 -6 7 7 10 15 7 18 -3 3 -9 -2 -12 -12z"/>
<path d="M1450 390 c0 -5 5 -10 10 -10 6 0 10 5 10 10 0 6 -4 10 -10 10 -5 0
-10 -4 -10 -10z"/>
<path d="M1539 293 c-13 -16 -12 -17 4 -4 16 13 21 21 13 21 -2 0 -10 -8 -17
-17z"/>
<path d="M1431 291 c-10 -6 -3 -9 22 -8 22 1 32 4 24 9 -16 10 -29 10 -46 -1z"/>
<path d="M640 270 c0 -5 13 -10 29 -10 17 0 33 5 36 10 4 6 -8 10 -29 10 -20
0 -36 -4 -36 -10z"/>
<path d="M1060 265 c-30 -8 -71 -14 -91 -15 -20 0 -53 -7 -74 -16 -34 -14 -38
-14 -49 1 -10 14 -20 15 -63 7 -34 -6 -55 -6 -62 1 -15 15 -41 -11 -39 -40 2
-21 6 -23 28 -17 14 3 31 6 38 5 6 -1 22 -2 35 -3 12 -1 27 -9 34 -17 11 -14
12 -14 13 -1 0 19 50 50 80 50 11 0 19 3 17 8 -3 4 16 7 41 8 26 0 56 3 67 7
11 3 27 6 36 6 8 1 24 8 35 16 23 17 24 17 -46 0z"/>
<path d="M568 263 c7 -3 16 -2 19 1 4 3 -2 6 -13 5 -11 0 -14 -3 -6 -6z"/>
<path d="M1150 240 c-9 -6 -10 -10 -3 -10 6 0 15 5 18 10 8 12 4 12 -15 0z"/>
<path d="M1380 189 c0 -5 5 -7 10 -4 6 3 10 8 10 11 0 2 -4 4 -10 4 -5 0 -10
-5 -10 -11z"/>
<path d="M1075 180 c-3 -5 3 -10 15 -10 12 0 18 5 15 10 -3 6 -10 10 -15 10
-5 0 -12 -4 -15 -10z"/>
<path d="M918 173 c7 -3 16 -2 19 1 4 3 -2 6 -13 5 -11 0 -14 -3 -6 -6z"/>
<path d="M405 150 c-4 -6 8 -10 29 -10 20 0 36 5 36 10 0 6 -13 10 -29 10 -17
0 -33 -4 -36 -10z"/>
<path d="M2293 1112 c-8 -5 -9 -13 -3 -22 13 -20 12 -60 -1 -60 -5 0 -7 -5 -3
-11 4 -8 11 -5 18 9 10 19 14 22 33 22 3 0 -1 8 -9 18 -9 9 -18 25 -19 34 -3
11 -9 15 -16 10z"/>
<path d="M2460 959 c0 -5 -8 -9 -17 -7 -19 3 -43 -8 -43 -20 0 -12 59 -12 67
1 11 18 12 37 2 37 -5 0 -9 -5 -9 -11z"/>
<path d="M653 1740 c-32 -13 -29 -21 5 -10 56 18 58 18 37 19 -11 0 -30 -4
-42 -9z"/>
<path d="M4514 1353 c-9 -15 -14 -16 -26 -6 -12 11 -17 8 -26 -13 -15 -31 0
-64 28 -64 30 0 62 37 58 67 -4 32 -19 39 -34 16z"/>
<path d="M610 1261 c-5 -11 -10 -28 -10 -38 0 -41 51 -59 70 -24 13 26 13 31
-4 25 -21 -8 -32 17 -13 31 9 7 14 15 10 18 -13 14 -43 6 -53 -12z"/>
<path d="M754 1246 c-9 -36 -1 -68 19 -80 15 -9 22 -6 39 14 l20 25 -21 3
c-16 3 -21 9 -19 25 2 12 9 21 16 19 8 -1 11 2 7 8 -3 5 -17 10 -30 10 -18 0
-26 -7 -31 -24z"/>
<path d="M510 1196 c0 -2 7 -9 15 -16 13 -11 14 -10 9 4 -5 14 -24 23 -24 12z"/>
<path d="M1947 683 c-14 -14 -6 -53 15 -73 30 -27 72 -23 76 7 6 40 -66 92
-91 66z m63 -34 c0 -18 -35 -5 -38 14 -3 16 -1 17 17 7 12 -6 21 -15 21 -21z"/>
<path d="M1791 588 c-16 -42 27 -96 64 -82 24 10 19 70 -7 88 -31 22 -47 20
-57 -6z m59 -13 c7 -9 10 -18 7 -21 -10 -11 -37 5 -37 21 0 19 14 19 30 0z"/>
<path d="M4138 313 c12 -2 30 -2 40 0 9 3 -1 5 -23 4 -22 0 -30 -2 -17 -4z"/>
<path d="M2558 253 c7 -3 16 -2 19 1 4 3 -2 6 -13 5 -11 0 -14 -3 -6 -6z"/>
<path d="M1645 210 c3 -5 14 -10 23 -10 15 0 15 2 2 10 -20 13 -33 13 -25 0z"/>
<path d="M1561 206 c2 -2 22 -6 44 -10 29 -5 36 -4 25 3 -13 10 -79 16 -69 7z"/>
<path d="M3655 160 c19 -8 113 -14 104 -6 -2 2 -31 6 -64 9 -38 4 -53 3 -40
-3z"/>
<path d="M2813 163 c9 -2 25 -2 35 0 9 3 1 5 -18 5 -19 0 -27 -2 -17 -5z"/>
<path d="M2535 151 c-17 -7 -16 -9 10 -14 40 -7 92 3 73 14 -16 11 -56 10 -83
0z"/>
<path d="M2655 150 c-18 -8 -18 -9 5 -9 14 0 34 4 45 9 18 8 18 9 -5 9 -14 0
-34 -4 -45 -9z"/>
<path d="M2875 140 c3 -5 13 -10 21 -10 8 0 12 5 9 10 -3 6 -13 10 -21 10 -8
0 -12 -4 -9 -10z"/>
<path d="M2430 130 l-35 -7 43 -2 c23 0 42 4 42 9 0 6 -3 9 -7 9 -5 -1 -24 -5
-43 -9z"/>
<path d="M3352 3268 c-16 -16 -15 -25 2 -31 10 -4 13 -1 9 10 -3 8 0 19 8 24
8 5 9 9 4 9 -6 0 -16 -5 -23 -12z"/>
<path d="M3847 3149 c-39 -23 -61 -119 -26 -119 6 0 6 7 -1 20 -14 26 -6 51
27 84 28 28 28 31 0 15z"/>
<path d="M4026 3132 c51 -37 62 -51 84 -109 11 -26 19 -41 19 -33 1 18 -32 88
-51 110 -20 23 -69 60 -81 60 -5 0 8 -13 29 -28z"/>
<path d="M3938 3114 c-3 -3 -20 -6 -37 -6 -25 -1 -29 -4 -20 -15 7 -7 20 -11
29 -8 11 3 20 -1 24 -10 3 -8 10 -15 16 -15 6 0 8 5 4 12 -4 7 -3 8 4 4 7 -4
12 -16 12 -27 0 -10 5 -19 11 -19 6 0 9 -9 6 -20 -3 -11 0 -23 5 -27 7 -4 8
-1 3 7 -5 9 -4 11 4 6 9 -6 8 -14 -4 -32 -9 -14 -13 -33 -10 -43 3 -12 0 -21
-10 -25 -8 -3 -15 -14 -15 -24 0 -22 -37 -59 -48 -48 -4 4 2 14 12 22 18 12
18 14 3 14 -10 0 -20 -6 -23 -14 -4 -10 -15 -13 -40 -9 -19 3 -34 1 -34 -4 0
-5 10 -9 23 -9 12 1 21 -4 20 -11 -2 -7 6 -10 18 -8 16 3 24 -4 35 -30 14 -34
28 -44 38 -27 3 5 6 37 7 71 1 34 6 64 10 67 5 3 6 -2 3 -10 -3 -9 -2 -16 4
-16 5 0 13 8 17 18 6 15 9 14 31 -11 13 -15 24 -24 24 -19 0 5 -11 18 -24 31
-23 22 -26 71 -4 71 6 0 4 8 -3 17 -12 15 -12 16 6 10 17 -6 17 -5 -3 11 -18
14 -20 20 -10 31 9 10 9 12 1 7 -19 -10 -48 51 -32 70 14 17 5 18 -21 2 -10
-7 -23 -9 -27 -5 -4 5 -1 12 7 17 8 6 10 10 4 10 -6 0 -13 -3 -16 -6z m69
-179 c0 -8 -4 -12 -9 -9 -5 3 -6 10 -3 15 9 13 12 11 12 -6z m-47 -145 c0 -48
-16 -53 -25 -9 -6 27 3 48 23 49 1 0 2 -18 2 -40z"/>
<path d="M3842 3088 c-7 -7 -12 -16 -12 -21 0 -13 30 -40 37 -33 4 3 -2 12
-12 20 -16 12 -17 16 -6 30 16 19 11 22 -7 4z"/>
<path d="M350 3076 c0 -2 8 -10 18 -17 15 -13 16 -12 3 4 -13 16 -21 21 -21
13z"/>
<path d="M3438 3033 c12 -2 30 -2 40 0 9 3 -1 5 -23 4 -22 0 -30 -2 -17 -4z"/>
<path d="M4133 2920 c0 -30 2 -43 4 -27 2 15 2 39 0 55 -2 15 -4 2 -4 -28z"/>
<path d="M2267 2913 c18 -2 50 -2 70 0 21 2 7 4 -32 4 -38 0 -55 -2 -38 -4z"/>
<path d="M2143 2903 c9 -2 25 -2 35 0 9 3 1 5 -18 5 -19 0 -27 -2 -17 -5z"/>
<path d="M2448 2903 c18 -2 45 -2 60 0 15 2 0 4 -33 4 -33 0 -45 -2 -27 -4z"/>
<path d="M2573 2893 c9 -2 23 -2 30 0 6 3 -1 5 -18 5 -16 0 -22 -2 -12 -5z"/>
<path d="M2633 2883 c9 -2 25 -2 35 0 9 3 1 5 -18 5 -19 0 -27 -2 -17 -5z"/>
<path d="M2715 2870 c17 -4 39 -8 50 -8 16 0 15 2 -5 8 -14 4 -36 8 -50 8 -22
0 -22 -1 5 -8z"/>
<path d="M2838 2843 c7 -3 16 -2 19 1 4 3 -2 6 -13 5 -11 0 -14 -3 -6 -6z"/>
<path d="M3795 2830 c3 -5 8 -10 11 -10 2 0 4 5 4 10 0 6 -5 10 -11 10 -5 0
-7 -4 -4 -10z"/>
<path d="M3782 2765 c0 -16 2 -22 5 -12 2 9 2 23 0 30 -3 6 -5 -1 -5 -18z"/>
<path d="M3348 2723 c12 -2 32 -2 45 0 12 2 2 4 -23 4 -25 0 -35 -2 -22 -4z"/>
<path d="M3775 2630 c17 -4 41 -8 55 -8 22 0 22 1 -5 8 -16 4 -41 8 -55 8 -22
0 -22 -1 5 -8z"/>
<path d="M4385 1472 c-13 -13 -19 -14 -22 -4 -8 20 -20 14 -33 -18 -10 -24
-10 -33 0 -45 28 -34 90 1 90 49 0 33 -13 39 -35 18z"/>
</g>
</svg>
